<?xml version="1.0" encoding="UTF-8"?>
<!DOCTYPE svg PUBLIC "-//W3C//DTD SVG 1.1//EN" "http://www.w3.org/Graphics/SVG/1.1/DTD/svg11.dtd">
<!-- Creator: CorelDRAW -->
<svg xmlns="http://www.w3.org/2000/svg" xml:space="preserve" width="210mm" height="297mm" version="1.1" style="shape-rendering:geometricPrecision; text-rendering:geometricPrecision; image-rendering:optimizeQuality; fill-rule:evenodd; clip-rule:evenodd"
viewBox="0 0 21000 29700"
 xmlns:xlink="http://www.w3.org/1999/xlink"
 xmlns:xodm="http://www.corel.com/coreldraw/odm/2003">
 <defs>
  <style type="text/css">
   <![CDATA[
    .str0 {stroke:#332C2B;stroke-width:70.56;stroke-miterlimit:22.9256}
    .fil0 {fill:none}
    .fil1 {fill:#332C2B}
   ]]>
  </style>
 </defs>
 <g id="圖層_x0020_1">
  <metadata id="CorelCorpID_0Corel-Layer"/>
  <ellipse class="fil0 str0" transform="matrix(-4.16056 -0.274587 0.0519737 3.092 7533.83 6966.73)" rx="717.43" ry="93.87"/>
  <path class="fil0 str0" d="M10512.46 7190.02l22.59 7222.9c0,0 -2626.44,723.85 -6024.45,-501.97"/>
  <path class="fil0 str0" d="M4552.56 6799.51l-38.74 7113.78 122.52 1009.64c0,0 3769.63,1294.09 5760.34,423.92"/>
  <path class="fil0 str0" d="M10533.85 14404.94l-139.55 1052.96c0,0 -526.22,5253.92 -1093.97,6007.07 -283.71,376.37 -436.09,242.46 -466.25,375.02 -30.16,132.56 27.01,698.42 30.25,1338.51 0,0 -405.19,174.79 -853.86,237.32 -224.34,31.23 -601.16,15.79 -858.86,-62.54 -257.74,-78.33 -509.03,-189.65 -935.67,-455"/>
  <polygon class="fil0 str0" points="6197.1,21519.84 6216,22901.55 "/>
  <path class="fil0 str0" d="M5633.22 21047.6c0,0 162.93,274.32 588.24,460.53"/>
  <path class="fil0 str0" d="M4642.49 14944.92c0,0 -52.97,3661.68 990.73,6102.68"/>
  <path class="fil1 str0" d="M5265.36 9163.7l-89.82 -7.38c-222.32,-18.37 -404.17,148.04 -404.13,369.82l0.42 2145.16c0.04,221.79 181.93,418.23 404.3,436.6l89.77 7.39c222.37,18.37 404.22,-148.04 404.18,-369.82l-0.42 -2145.17c-0.04,-221.78 -181.98,-418.22 -404.3,-436.6z"/>
  <polyline class="fil0 str0" points="9741.6,20580.75 10688.12,20379.65 14640.66,20060.66 14794.72,19807.26 14719.32,15321.63 12706.56,14447.15 "/>
  <line class="fil0 str0" x1="14720.21" y1="15374.4" x2="10389.9" y2= "15575.46" />
  <path class="fil0 str0" d="M14827.15 18596.99l1316.33 -176.7c0,0 1453.53,-1432.76 -627.26,-2782.5"/>
  <line class="fil0 str0" x1="15517.1" y1="15690.56" x2="14715.01" y2= "15814.4" />
  <line class="fil0 str0" x1="13045.44" y1="20740.65" x2="13036.39" y2= "20202.66" />
  <path class="fil0 str0" d="M13046.3 20791.89c0,0 -812.1,458.21 -2356.95,-2.01"/>
  <line class="fil0 str0" x1="10657.24" y1="20403.91" x2="10664.13" y2= "20813.81" />
  <path class="fil0 str0" d="M12689.73 13296.01l-61.01 942.81 -152.16 92.32 155.18 87.01c0,0 1008.63,549.01 -966.63,393.06"/>
  <path class="fil0 str0" d="M12892.51 14691.26l-13.45 178.25 -13.45 178.24c0,0 -318.2,98.62 -750.27,109.41 -216.04,5.4 -641.61,-20.92 -901.09,-85.69 -247.42,-61.77 -413.41,-134.12 -742.25,-265.46"/>
  <path class="fil0 str0" d="M11661.67 14815.15c0,0 -1081.29,-184.58 -1140.14,-309.93"/>
  <path class="fil0 str0" d="M10833.69 14463.68l2.99 -205.7c0,0 -42.42,-14.2 -83.14,-24.99 -40.71,-10.78 -71.67,-21.75 -71.67,-21.75l-10.28 -1093.87c0,0 1022.52,-418.37 2013.37,173.37"/>
  <path class="fil0 str0" d="M12676.84 13290.2c0,0 -1091.52,170.9 -1996.86,-156.08"/>
  <line class="fil0 str0" x1="12394.16" y1="13352.52" x2="12354.79" y2= "14386.43" />
  <line class="fil0 str0" x1="11339.53" y1="13307.21" x2="11340.19" y2= "14311.37" />
  <path class="fil0 str0" d="M12459.2 14328.54c0,0 -515.04,225.13 -1777.6,-133.51"/>
  <path class="fil0 str0" d="M10832.61 14448.79c1001.1,236.63 1678.55,126.2 1678.55,126.2l-5.13 -232.51"/>
  <path class="fil0 str0" d="M8861.09 22830.83c0,0 -1332.07,767.02 -2656.83,-269.29"/>
  <path class="fil0 str0" d="M8855.76 22513.96c0,0 -1332.07,767.02 -2656.83,-269.29"/>
  <path class="fil0 str0" d="M8850.27 22187.69c0,0 -1332.06,767.02 -2656.82,-269.3"/>
  <path class="fil0 str0" d="M8845.19 21885.1c0,0 -1332.07,767.02 -2656.83,-269.29"/>
  <path class="fil0 str0" d="M15900.18 18416.58c0,0 1089.6,-1557.02 -588.43,-2667.99"/>
  <path class="fil0 str0" d="M15547.87 18469.19c0,0 1070.72,-1570.69 -607.31,-2681.65"/>
  <path class="fil0 str0" d="M15151.64 18518.91c0,0 1095.72,-1499.46 -400.33,-2598.42"/>
  <path class="fil0 str0" d="M10535.66 14496.06c0,0 4.84,-145.13 280.7,-192.37"/>
  <ellipse class="fil0 str0" transform="matrix(-3.93965 -0.260007 0.0661483 3.93528 11637.7 13139.8)" rx="89.72" ry="21.27"/>
  <line class="fil0 str0" x1="11613.56" y1="13221.84" x2="11800.73" y2= "13096.02" />
  <line class="fil0 str0" x1="11445.56" y1="13188.93" x2="11603.58" y2= "13061.19" />
 </g>
</svg>
