<?xml version="1.0" encoding="UTF-8"?>
<!DOCTYPE svg PUBLIC "-//W3C//DTD SVG 1.1//EN" "http://www.w3.org/Graphics/SVG/1.1/DTD/svg11.dtd">
<!-- Creator: CorelDRAW -->
<svg xmlns="http://www.w3.org/2000/svg" xml:space="preserve" width="210mm" height="297mm" version="1.1" style="shape-rendering:geometricPrecision; text-rendering:geometricPrecision; image-rendering:optimizeQuality; fill-rule:evenodd; clip-rule:evenodd"
viewBox="0 0 21000 29700"
 xmlns:xlink="http://www.w3.org/1999/xlink"
 xmlns:xodm="http://www.corel.com/coreldraw/odm/2003">
 <defs>
  <style type="text/css">
   <![CDATA[
    .str0 {stroke:#FEFEFE;stroke-width:70.56;stroke-miterlimit:22.9256}
    .str3 {stroke:#332C2B;stroke-width:70.56;stroke-linecap:round;stroke-linejoin:round;stroke-miterlimit:10}
    .str1 {stroke:black;stroke-width:70.56;stroke-linecap:round;stroke-linejoin:round;stroke-miterlimit:10}
    .str2 {stroke:black;stroke-width:70.56;stroke-linecap:round;stroke-linejoin:bevel;stroke-miterlimit:10}
    .fil2 {fill:none}
    .fil1 {fill:none;fill-rule:nonzero}
    .fil0 {fill:#FEFEFE}
   ]]>
  </style>
 </defs>
 <g id="圖層_x0020_1">
  <metadata id="CorelCorpID_0Corel-Layer"/>
  <path class="fil0 str0" d="M6433.45 9518.3l2518.71 -476.77 0 4354.18 -3962.52 750.08 0 -2858.63c0,-822.58 649.71,-1618.54 1443.81,-1768.86z"/>
  <line class="fil1 str1" x1="4939.11" y1="10873.31" x2="5095.43" y2= "11012.84" />
  <line class="fil1 str1" x1="4939.11" y1="21666.73" x2="4939.11" y2= "10873.31" />
  <line class="fil1 str1" x1="4920.35" y1="10842.05" x2="4920.35" y2= "21635.46" />
  <line class="fil1 str1" x1="5095.43" y1="21806.26" x2="4939.11" y2= "21666.73" />
  <line class="fil1 str2" x1="4939.11" y1="10848.29" x2="4939.11" y2= "10810.77" />
  <line class="fil1 str2" x1="4939.11" y1="10873.31" x2="4939.11" y2= "10854.55" />
  <polyline class="fil1 str1" points="5164.24,22248.13 5051.67,22110.63 5007.89,22033.52 4976.63,21954.35 4951.61,21870.98 4932.85,21789.7 4920.35,21635.46 "/>
  <path class="fil1 str1" d="M4920.35 10842.05l6.24 -97.96c40.15,-422.42 321.85,-818.14 681.63,-948.95l81.3 -29.24"/>
  <path class="fil1 str1" d="M4939.11 10810.77l12.5 -89.64c39.5,-376.67 321.44,-768.89 637.85,-894.71l75.04 -31.32"/>
  <path class="fil1 str1" d="M5164.24 22248.13l-56.28 -62.5c-80.69,-98.95 -145.63,-261.06 -156.35,-370.93l-12.5 -147.97"/>
  <polyline class="fil1 str1" points="4920.35,10842.05 4926.59,10856.65 4939.11,10873.31 "/>
  <polyline class="fil1 str1" points="4939.11,21666.73 4926.59,21650.03 4920.35,21635.46 "/>
  <line class="fil2 str1" x1="4920.35" y1="11648.74" x2="4920.35" y2= "21635.46" />
  <line class="fil1 str1" x1="15619.93" y1="7622.12" x2="15776.28" y2= "7761.66" />
  <line class="fil1 str1" x1="15069.65" y1="7495.37" x2="15225.97" y2= "7634.9" />
  <line class="fil1 str1" x1="16020.16" y1="8374.33" x2="16020.16" y2= "19167.71" />
  <line class="fil1 str1" x1="16001.4" y1="8386.85" x2="16001.4" y2= "19180.23" />
  <line class="fil1 str1" x1="15250.99" y1="20243.85" x2="5902.12" y2= "22531.08" />
  <line class="fil1 str1" x1="15263.49" y1="20216.75" x2="5914.65" y2= "22510.22" />
  <line class="fil1 str1" x1="5870.86" y1="9920.02" x2="5720.78" y2= "9782.56" />
  <line class="fil1 str1" x1="5170.47" y1="21831.22" x2="5170.47" y2= "11037.8" />
  <line class="fil1 str1" x1="5095.43" y1="11012.84" x2="5095.43" y2= "21806.26" />
  <line class="fil1 str1" x1="5914.65" y1="10003.39" x2="15263.49" y2= "7716.16" />
  <line class="fil1 str1" x1="15225.97" y1="7634.9" x2="5870.86" y2= "9920.02" />
  <line class="fil1 str1" x1="5720.78" y1="9782.56" x2="15069.65" y2= "7495.37" />
  <line class="fil1 str1" x1="15038.37" y1="7478.7" x2="5689.52" y2= "9765.9" />
  <line class="fil1 str1" x1="5164.24" y1="22248.13" x2="5320.55" y2= "22387.66" />
  <line class="fil1 str2" x1="5664.5" y1="9795.1" x2="5695.76" y2= "9786.74" />
  <line class="fil1 str2" x1="5702.02" y1="9788.82" x2="5720.78" y2= "9788.83" />
  <line class="fil1 str2" x1="15995.14" y1="8359.74" x2="15995.14" y2= "8384.76" />
  <line class="fil1 str2" x1="5914.65" y1="22497.72" x2="5889.62" y2= "22501.9" />
  <line class="fil1 str2" x1="15995.14" y1="8322.22" x2="15995.14" y2= "8366" />
  <path class="fil1 str1" d="M16020.16 19167.71l-6.26 97.98c-40.12,422.42 -321.82,818.15 -681.6,948.93l-81.31 29.23"/>
  <path class="fil1 str1" d="M5902.12 22531.08l-68.78 8.38c-126.95,26.67 -305.57,-1.69 -443.98,-97.66l-68.81 -54.14"/>
  <path class="fil1 str1" d="M15776.28 7761.66l62.54 64.58c105.27,130.18 173.31,330.93 175.08,470.96l6.26 77.13"/>
  <path class="fil1 str1" d="M15038.37 7478.7l68.8 -8.37c126.95,-26.67 305.57,1.69 443.99,97.63l68.77 54.16"/>
  <path class="fil1 str1" d="M15776.28 7761.66l-68.78 -47.9c-141.66,-95.98 -220.66,-92.16 -356.44,-99.8l-125.09 20.94"/>
  <polyline class="fil1 str1" points="5720.78,9782.56 5702.02,9770.06 5689.52,9765.9 "/>
  <polyline class="fil1 str3" points="16020.16,19167.71 16013.9,19178.15 16001.4,19180.23 "/>
  <polyline class="fil1 str1" points="15038.37,7478.7 15050.89,7482.87 15069.65,7495.37 "/>
  <path class="fil1 str1" d="M15069.65 7495.37l125.06 -20.95c111.2,-11.99 239.31,25.71 356.45,93.54l68.77 54.16"/>
  <line class="fil1 str1" x1="5902.12" y1="22531.08" x2="5914.65" y2= "22510.22" />
  <polyline class="fil1 str1" points="15263.49,20216.75 15257.26,20233.44 15250.99,20243.85 "/>
  <polyline class="fil1 str1" points="16001.4,8386.85 16013.9,8384.74 16020.16,8374.33 "/>
  <polyline class="fil1 str1" points="5095.43,21806.26 5101.69,21914.64 5120.45,22020.94 5151.71,22125.14 5201.76,22235.59 5251.77,22314.77 5320.55,22387.66 "/>
  <polyline class="fil1 str1" points="15225.97,7634.9 15250.99,7674.48 15263.49,7716.16 "/>
  <path class="fil1 str1" d="M16001.4 8324.3l-18.76 -131.3c-78.05,-338.53 -317.47,-509.45 -606.59,-495.68l-112.56 18.84"/>
  <path class="fil1 str1" d="M5914.65 10003.39l-81.31 22.98c-357.48,150.3 -610.75,487.64 -656.61,919.72l-6.26 91.71"/>
  <path class="fil1 str1" d="M5170.47 21831.22l12.53 135.48c50.43,337.68 267.84,554.96 581.56,562.38l131.33 -18.84"/>
  <path class="fil1 str1" d="M15263.49 20216.75l81.3 -22.97c342.18,-123.63 613.69,-514.01 650.35,-915.57l6.26 -97.98"/>
  <path class="fil1 str1" d="M5914.65 10003.39l-12.53 -41.69 -31.26 -41.68 -81.3 29.24c-367.5,143.75 -651.5,523.94 -687.87,965.63l-6.26 97.95 37.52 18.75 37.52 6.21"/>
  <polyline class="fil1 str1" points="5170.47,21831.22 5132.95,21831.23 5095.43,21806.26 "/>
  <line class="fil2 str3" x1="12330.65" y1="13907.1" x2="12180.57" y2= "13707.1" />
  <line class="fil2 str3" x1="12374.41" y1="13990.46" x2="12118.03" y2= "13642.54" />
  <line class="fil2 str3" x1="12405.7" y1="14050.88" x2="12068.01" y2= "13600.88" />
  <line class="fil2 str3" x1="12424.46" y1="14094.64" x2="12030.49" y2= "13569.64" />
  <line class="fil2 str3" x1="12443.22" y1="14138.4" x2="11999.2" y2= "13546.74" />
  <line class="fil2 str3" x1="12461.98" y1="14182.16" x2="11967.95" y2= "13523.81" />
  <line class="fil2 str3" x1="12474.47" y1="14217.58" x2="11936.69" y2= "13500.92" />
  <line class="fil2 str3" x1="12486.97" y1="14253.02" x2="11911.67" y2= "13486.33" />
  <line class="fil2 str3" x1="12493.23" y1="14286.36" x2="11886.64" y2= "13471.78" />
  <line class="fil2 str3" x1="12505.73" y1="14315.54" x2="11861.65" y2= "13457.2" />
  <line class="fil2 str3" x1="12511.99" y1="14348.88" x2="11836.62" y2= "13442.61" />
  <line class="fil2 str3" x1="12518.26" y1="14375.99" x2="11811.6" y2= "13434.29" />
  <line class="fil2 str3" x1="12524.49" y1="14403.05" x2="11786.61" y2= "13419.75" />
  <line class="fil2 str3" x1="12530.75" y1="14430.16" x2="11767.85" y2= "13413.51" />
  <line class="fil2 str3" x1="12537.02" y1="14457.27" x2="11749.09" y2= "13407.27" />
  <line class="fil2 str3" x1="12543.25" y1="14484.33" x2="11724.06" y2= "13392.68" />
  <line class="fil2 str3" x1="12543.25" y1="14509.36" x2="12161.81" y2= "13994.79" />
  <line class="fil2 str3" x1="12036.72" y1="13828.09" x2="11705.3" y2= "13386.44" />
  <line class="fil2 str3" x1="12549.51" y1="14530.2" x2="12199.33" y2= "14069.78" />
  <line class="fil2 str3" x1="11980.44" y1="13771.85" x2="11686.54" y2= "13380.2" />
  <line class="fil2 str3" x1="12549.51" y1="14555.23" x2="12224.33" y2= "14121.88" />
  <line class="fil2 str3" x1="11942.92" y1="13740.61" x2="11667.78" y2= "13373.96" />
  <line class="fil2 str3" x1="12555.78" y1="14582.3" x2="12243.09" y2= "14165.64" />
  <line class="fil2 str3" x1="11905.4" y1="13715.64" x2="11649.02" y2= "13367.72" />
  <line class="fil2 str3" x1="12555.78" y1="14601.06" x2="12261.85" y2= "14203.14" />
  <line class="fil2 str3" x1="11874.15" y1="13692.74" x2="11630.26" y2= "13361.48" />
  <line class="fil2 str3" x1="12562.01" y1="14621.9" x2="12274.37" y2= "14244.82" />
  <line class="fil2 str3" x1="11849.12" y1="13678.16" x2="11611.5" y2= "13361.5" />
  <line class="fil2 str3" x1="12562.01" y1="14646.92" x2="12280.61" y2= "14271.92" />
  <line class="fil2 str3" x1="11824.13" y1="13663.58" x2="11592.74" y2= "13355.26" />
  <line class="fil2 str3" x1="12562.01" y1="14665.68" x2="12293.13" y2= "14307.34" />
  <line class="fil2 str3" x1="11799.1" y1="13649.02" x2="11573.98" y2= "13349.02" />
  <line class="fil2 str3" x1="12562.01" y1="14690.7" x2="12299.37" y2= "14334.44" />
  <line class="fil2 str3" x1="11774.08" y1="13640.7" x2="11555.22" y2= "13342.78" />
  <line class="fil2 str3" x1="12562.01" y1="14709.46" x2="12305.63" y2= "14367.78" />
  <line class="fil2 str3" x1="11755.32" y1="13628.2" x2="11536.46" y2= "13342.78" />
  <line class="fil2 str3" x1="12568.27" y1="14730.31" x2="12311.89" y2= "14394.89" />
  <line class="fil2 str3" x1="11730.33" y1="13619.89" x2="11523.96" y2= "13338.62" />
  <line class="fil2 str3" x1="12568.27" y1="14749.07" x2="12318.13" y2= "14421.98" />
  <line class="fil2 str3" x1="11711.57" y1="13613.65" x2="11505.2" y2= "13338.65" />
  <line class="fil2 str3" x1="12568.27" y1="14774.06" x2="12324.39" y2= "14442.83" />
  <line class="fil2 str3" x1="11692.81" y1="13607.41" x2="11486.44" y2= "13332.41" />
  <line class="fil2 str3" x1="12568.27" y1="14792.82" x2="12324.39" y2= "14467.82" />
  <line class="fil2 str3" x1="11674.05" y1="13601.17" x2="11473.92" y2= "13328.24" />
  <line class="fil2 str3" x1="12568.27" y1="14811.58" x2="12330.65" y2= "14494.93" />
  <line class="fil2 str3" x1="11655.29" y1="13594.93" x2="11455.16" y2= "13328.26" />
  <line class="fil2 str3" x1="12568.27" y1="14830.34" x2="12336.89" y2= "14522.03" />
  <line class="fil2 str3" x1="11636.53" y1="13588.69" x2="11436.4" y2= "13322.02" />
  <line class="fil2 str3" x1="12568.27" y1="14849.1" x2="12336.89" y2= "14540.79" />
  <line class="fil2 str3" x1="11617.76" y1="13582.45" x2="11423.9" y2= "13324.1" />
  <line class="fil2 str3" x1="12568.27" y1="14867.86" x2="12336.89" y2= "14565.78" />
  <line class="fil2 str3" x1="11599" y1="13576.21" x2="11405.14" y2= "13324.12" />
  <line class="fil2 str3" x1="12568.27" y1="14892.89" x2="12343.15" y2= "14586.62" />
  <line class="fil2 str3" x1="11580.24" y1="13569.97" x2="11392.64" y2= "13319.97" />
  <line class="fil2 str3" x1="12568.27" y1="14911.65" x2="12343.15" y2= "14605.38" />
  <line class="fil2 str3" x1="11561.48" y1="13569.99" x2="11373.88" y2= "13319.99" />
  <line class="fil2 str3" x1="12568.27" y1="14930.41" x2="12343.15" y2= "14630.41" />
  <line class="fil2 str3" x1="11542.72" y1="13563.75" x2="11361.36" y2= "13322.06" />
  <line class="fil2 str3" x1="12568.27" y1="14949.17" x2="12343.15" y2= "14649.17" />
  <line class="fil2 str3" x1="11530.2" y1="13565.82" x2="11342.59" y2= "13315.82" />
  <line class="fil2 str3" x1="12568.27" y1="14961.66" x2="12343.15" y2= "14667.93" />
  <line class="fil2 str3" x1="11511.44" y1="13559.58" x2="11330.1" y2= "13317.92" />
  <line class="fil2 str3" x1="12562.01" y1="14978.34" x2="12349.42" y2= "14695.03" />
  <line class="fil2 str3" x1="11498.94" y1="13561.69" x2="11317.6" y2= "13320.03" />
  <line class="fil2 str3" x1="12562.01" y1="14997.1" x2="12349.42" y2= "14713.79" />
  <line class="fil2 str3" x1="11480.18" y1="13555.45" x2="11298.84" y2= "13313.79" />
  <line class="fil2 str3" x1="12562.01" y1="15015.86" x2="12349.42" y2= "14732.55" />
  <line class="fil2 str3" x1="11461.42" y1="13555.47" x2="11286.31" y2= "13315.86" />
  <line class="fil2 str3" x1="12562.01" y1="15034.62" x2="12349.42" y2= "14751.31" />
  <line class="fil2 str3" x1="11448.92" y1="13551.31" x2="11273.82" y2= "13317.97" />
  <line class="fil2 str3" x1="12555.78" y1="15051.31" x2="12349.42" y2= "14770.07" />
  <line class="fil2 str3" x1="11430.16" y1="13551.31" x2="11255.06" y2= "13317.99" />
  <line class="fil2 str3" x1="12555.78" y1="15070.07" x2="12349.42" y2= "14795.07" />
  <line class="fil2 str3" x1="11417.64" y1="13553.4" x2="11242.56" y2= "13320.07" />
  <line class="fil2 str3" x1="12555.78" y1="15088.83" x2="12349.42" y2= "14813.83" />
  <line class="fil2 str3" x1="11405.14" y1="13549.25" x2="11230.03" y2= "13315.9" />
  <line class="fil2 str3" x1="12555.78" y1="15101.36" x2="12349.42" y2= "14832.59" />
  <line class="fil2 str3" x1="11386.38" y1="13549.27" x2="11217.54" y2= "13318.01" />
  <line class="fil2 str3" x1="12549.51" y1="15118.03" x2="12349.42" y2= "14851.35" />
  <line class="fil2 str3" x1="11373.88" y1="13551.35" x2="11198.78" y2= "13318.03" />
  <line class="fil2 str3" x1="12549.51" y1="15136.79" x2="12349.42" y2= "14870.11" />
  <line class="fil2 str3" x1="11355.12" y1="13545.11" x2="11186.28" y2= "13320.11" />
  <line class="fil2 str3" x1="12543.25" y1="15153.47" x2="12343.15" y2= "14880.55" />
  <line class="fil2 str3" x1="11342.59" y1="13547.2" x2="11173.75" y2= "13322.2" />
  <line class="fil2 str3" x1="12543.25" y1="15165.97" x2="12343.15" y2= "14899.31" />
  <line class="fil2 str3" x1="11330.1" y1="13549.31" x2="11161.26" y2= "13324.31" />
  <line class="fil2 str3" x1="12543.25" y1="15184.73" x2="12343.15" y2= "14918.07" />
  <line class="fil2 str3" x1="11317.6" y1="13551.39" x2="11142.5" y2= "13324.3" />
  <line class="fil2 str3" x1="12537.02" y1="15201.41" x2="12343.15" y2= "14936.83" />
  <line class="fil2 str3" x1="11298.84" y1="13551.41" x2="11130" y2= "13326.41" />
  <line class="fil2 str3" x1="12537.02" y1="15213.91" x2="12336.89" y2= "14953.51" />
  <line class="fil2 str3" x1="11286.31" y1="13553.51" x2="11117.47" y2= "13328.51" />
  <line class="fil2 str3" x1="12530.75" y1="15230.59" x2="12336.89" y2= "14972.27" />
  <line class="fil2 str3" x1="11273.82" y1="13555.59" x2="11104.97" y2= "13330.58" />
  <line class="fil2 str3" x1="12530.75" y1="15249.35" x2="12336.89" y2= "14991.03" />
  <line class="fil2 str3" x1="11261.32" y1="13551.43" x2="11092.48" y2= "13332.69" />
  <line class="fil2 str3" x1="12524.49" y1="15259.79" x2="12336.89" y2= "15003.53" />
  <line class="fil2 str3" x1="11242.56" y1="13551.45" x2="11079.95" y2= "13334.79" />
  <line class="fil2 str3" x1="12524.49" y1="15278.55" x2="12330.65" y2= "15020.22" />
  <line class="fil2 str3" x1="11230.03" y1="13553.55" x2="11067.45" y2= "13336.87" />
  <line class="fil2 str3" x1="12524.49" y1="15297.31" x2="12330.65" y2= "15038.98" />
  <line class="fil2 str3" x1="11217.54" y1="13555.63" x2="11054.96" y2= "13338.97" />
  <line class="fil2 str3" x1="12518.26" y1="15307.74" x2="12324.39" y2= "15055.65" />
  <line class="fil2 str3" x1="11205.04" y1="13557.73" x2="11042.43" y2= "13341.07" />
  <line class="fil2 str3" x1="12511.99" y1="15324.41" x2="12324.39" y2= "15068.15" />
  <line class="fil2 str3" x1="11192.51" y1="13559.83" x2="11029.93" y2= "13343.15" />
  <line class="fil2 str3" x1="12511.99" y1="15336.91" x2="12324.39" y2= "15086.91" />
  <line class="fil2 str3" x1="11180.02" y1="13561.91" x2="11017.44" y2= "13345.25" />
  <line class="fil2 str3" x1="12505.73" y1="15353.59" x2="12318.13" y2= "15103.59" />
  <line class="fil2 str3" x1="11167.52" y1="13564.01" x2="11004.91" y2= "13347.35" />
  <line class="fil2 str3" x1="12505.73" y1="15372.35" x2="12318.13" y2= "15122.35" />
  <line class="fil2 str3" x1="11154.99" y1="13566.11" x2="10986.15" y2= "13347.34" />
  <line class="fil2 str3" x1="12499.5" y1="15382.8" x2="12311.89" y2= "15132.8" />
  <line class="fil2 str3" x1="11142.5" y1="13568.19" x2="10973.65" y2= "13349.45" />
  <line class="fil2 str3" x1="12499.5" y1="15401.56" x2="12311.89" y2= "15151.56" />
  <line class="fil2 str3" x1="11123.73" y1="13568.21" x2="10967.39" y2= "13353.63" />
  <line class="fil2 str3" x1="12493.23" y1="15411.97" x2="12305.63" y2= "15161.97" />
  <line class="fil2 str3" x1="11111.24" y1="13576.55" x2="10954.89" y2= "13361.97" />
  <line class="fil2 str3" x1="12486.97" y1="15428.65" x2="12305.63" y2= "15180.73" />
  <line class="fil2 str3" x1="11098.71" y1="13578.65" x2="10942.4" y2= "13364.08" />
  <line class="fil2 str3" x1="12486.97" y1="15441.15" x2="12299.37" y2= "15197.41" />
  <line class="fil2 str3" x1="11086.21" y1="13580.76" x2="10929.87" y2= "13366.14" />
  <line class="fil2 str3" x1="12480.74" y1="15457.84" x2="12299.37" y2= "15209.91" />
  <line class="fil2 str3" x1="11073.72" y1="13582.83" x2="10917.37" y2= "13368.25" />
  <line class="fil2 str3" x1="12480.74" y1="15470.36" x2="12293.13" y2= "15226.6" />
  <line class="fil2 str3" x1="11061.19" y1="13584.93" x2="10904.88" y2= "13370.36" />
  <line class="fil2 str3" x1="12474.47" y1="15487.04" x2="12293.13" y2= "15239.12" />
  <line class="fil2 str3" x1="11048.69" y1="13587.04" x2="10892.35" y2= "13372.43" />
  <line class="fil2 str3" x1="12468.21" y1="15497.45" x2="12286.87" y2= "15255.8" />
  <line class="fil2 str3" x1="11036.2" y1="13589.11" x2="10879.85" y2= "13380.8" />
  <line class="fil2 str3" x1="12468.21" y1="15516.21" x2="12286.87" y2= "15274.56" />
  <line class="fil2 str3" x1="11029.93" y1="13593.29" x2="10867.35" y2= "13382.87" />
  <line class="fil2 str3" x1="12461.98" y1="15526.64" x2="12280.61" y2= "15284.97" />
  <line class="fil2 str3" x1="11017.44" y1="13601.63" x2="10854.83" y2= "13384.97" />
  <line class="fil2 str3" x1="12455.71" y1="15537.08" x2="12274.37" y2= "15301.66" />
  <line class="fil2 str3" x1="11004.91" y1="13603.73" x2="10842.33" y2= "13387.08" />
  <line class="fil2 str3" x1="12455.71" y1="15555.84" x2="12274.37" y2= "15314.16" />
  <line class="fil2 str3" x1="10992.41" y1="13605.84" x2="10829.83" y2= "13395.42" />
  <line class="fil2 str3" x1="12449.45" y1="15566.25" x2="12268.11" y2= "15330.83" />
  <line class="fil2 str3" x1="10979.92" y1="13607.91" x2="10817.31" y2= "13397.51" />
  <line class="fil2 str3" x1="12443.22" y1="15582.94" x2="12268.11" y2= "15343.36" />
  <line class="fil2 str3" x1="10967.39" y1="13610.01" x2="10811.07" y2= "13401.67" />
  <line class="fil2 str3" x1="12436.95" y1="15593.36" x2="12261.85" y2= "15360.04" />
  <line class="fil2 str3" x1="10954.89" y1="13618.35" x2="10798.55" y2= "13403.77" />
  <line class="fil2 str3" x1="12436.95" y1="15605.88" x2="12255.61" y2= "15370.46" />
  <line class="fil2 str3" x1="10942.4" y1="13620.46" x2="10786.05" y2= "13412.11" />
  <line class="fil2 str3" x1="12430.69" y1="15622.56" x2="12255.61" y2= "15382.96" />
  <line class="fil2 str3" x1="10929.87" y1="13622.55" x2="10773.55" y2= "13414.22" />
  <line class="fil2 str3" x1="12424.46" y1="15632.98" x2="12249.35" y2= "15399.64" />
  <line class="fil2 str3" x1="10923.64" y1="13626.72" x2="10761.03" y2= "13416.31" />
  <line class="fil2 str3" x1="12418.19" y1="15649.66" x2="12243.09" y2= "15410.08" />
  <line class="fil2 str3" x1="10911.11" y1="13635.08" x2="10748.53" y2= "13418.39" />
  <line class="fil2 str3" x1="12418.19" y1="15662.16" x2="12243.09" y2= "15428.84" />
  <line class="fil2 str3" x1="10898.61" y1="13637.15" x2="10742.27" y2= "13428.84" />
  <line class="fil2 str3" x1="12411.93" y1="15672.6" x2="12236.85" y2= "15439.26" />
  <line class="fil2 str3" x1="10886.11" y1="13639.26" x2="10729.77" y2= "13430.91" />
  <line class="fil2 str3" x1="12405.7" y1="15689.29" x2="12230.59" y2= "15455.94" />
  <line class="fil2 str3" x1="10873.59" y1="13647.59" x2="10717.27" y2= "13433.02" />
  <line class="fil2 str3" x1="12399.43" y1="15699.7" x2="12224.33" y2= "15466.35" />
  <line class="fil2 str3" x1="10861.09" y1="13649.7" x2="10704.75" y2= "13441.35" />
  <line class="fil2 str3" x1="12399.43" y1="15712.2" x2="12224.33" y2= "15478.88" />
  <line class="fil2 str3" x1="10854.83" y1="13653.88" x2="10698.51" y2= "13445.54" />
  <line class="fil2 str3" x1="12393.17" y1="15722.64" x2="12218.09" y2= "15495.57" />
  <line class="fil2 str3" x1="10842.33" y1="13662.22" x2="10685.99" y2= "13447.64" />
  <line class="fil2 str3" x1="12386.94" y1="15739.33" x2="12211.83" y2= "15505.98" />
  <line class="fil2 str3" x1="10829.83" y1="13664.32" x2="10673.49" y2= "13455.98" />
  <line class="fil2 str3" x1="12380.67" y1="15749.74" x2="12205.57" y2= "15516.39" />
  <line class="fil2 str3" x1="10817.31" y1="13666.39" x2="10660.99" y2= "13458.08" />
  <line class="fil2 str3" x1="12374.41" y1="15760.16" x2="12205.57" y2= "15535.15" />
  <line class="fil2 str3" x1="10811.07" y1="13676.84" x2="10654.73" y2= "13468.5" />
  <line class="fil2 str3" x1="12368.18" y1="15776.84" x2="12199.33" y2= "15545.61" />
  <line class="fil2 str3" x1="10798.55" y1="13678.91" x2="10642.23" y2= "13470.6" />
  <line class="fil2 str3" x1="12368.18" y1="15789.37" x2="12193.07" y2= "15556.02" />
  <line class="fil2 str3" x1="10786.05" y1="13681.02" x2="10629.71" y2= "13472.67" />
  <line class="fil2 str3" x1="12361.91" y1="15799.78" x2="12186.81" y2= "15572.7" />
  <line class="fil2 str3" x1="10773.55" y1="13689.36" x2="10617.21" y2= "13481.04" />
  <line class="fil2 str3" x1="12355.65" y1="15810.2" x2="12180.57" y2= "15583.12" />
  <line class="fil2 str3" x1="10767.29" y1="13693.54" x2="10610.94" y2= "13485.19" />
  <line class="fil2 str3" x1="12349.42" y1="15826.88" x2="12180.57" y2= "15595.65" />
  <line class="fil2 str3" x1="10754.79" y1="13701.88" x2="10598.45" y2= "13493.56" />
  <line class="fil2 str3" x1="12343.15" y1="15837.33" x2="12174.31" y2= "15612.33" />
  <line class="fil2 str3" x1="10742.27" y1="13703.98" x2="10585.95" y2= "13495.64" />
  <line class="fil2 str3" x1="12336.89" y1="15847.74" x2="12168.05" y2= "15622.74" />
  <line class="fil2 str3" x1="10736.03" y1="13708.17" x2="10579.69" y2= "13499.82" />
  <line class="fil2 str3" x1="12330.65" y1="15858.16" x2="12161.81" y2= "15633.16" />
  <line class="fil2 str3" x1="10723.51" y1="13716.5" x2="10567.19" y2= "13508.16" />
  <line class="fil2 str3" x1="12324.39" y1="15874.84" x2="12155.55" y2= "15643.61" />
  <line class="fil2 str3" x1="10711.01" y1="13718.6" x2="10554.66" y2= "13510.26" />
  <line class="fil2 str3" x1="12324.39" y1="15887.37" x2="12149.29" y2= "15660.28" />
  <line class="fil2 str3" x1="10704.75" y1="13729.02" x2="10548.43" y2= "13520.68" />
  <line class="fil2 str3" x1="12318.13" y1="15897.78" x2="12149.29" y2= "15672.78" />
  <line class="fil2 str3" x1="10692.25" y1="13731.12" x2="10535.9" y2= "13522.78" />
  <line class="fil2 str3" x1="12311.89" y1="15908.2" x2="12143.05" y2= "15683.2" />
  <line class="fil2 str3" x1="10679.75" y1="13739.46" x2="10523.41" y2= "13531.12" />
  <line class="fil2 str3" x1="12305.63" y1="15918.65" x2="12136.79" y2= "15693.65" />
  <line class="fil2 str3" x1="10673.49" y1="13743.64" x2="10517.14" y2= "13535.3" />
  <line class="fil2 str3" x1="12299.37" y1="15929.06" x2="12130.53" y2= "15710.32" />
  <line class="fil2 str3" x1="10660.99" y1="13751.98" x2="10504.65" y2= "13543.64" />
  <line class="fil2 str3" x1="12293.13" y1="15945.75" x2="12124.29" y2= "15720.75" />
  <line class="fil2 str3" x1="10648.47" y1="13754.08" x2="10492.15" y2= "13545.74" />
  <line class="fil2 str3" x1="12286.87" y1="15956.16" x2="12118.03" y2= "15731.16" />
  <line class="fil2 str3" x1="10642.23" y1="13764.5" x2="10485.89" y2= "13556.16" />
  <line class="fil2 str3" x1="12280.61" y1="15966.61" x2="12111.77" y2= "15741.61" />
  <line class="fil2 str3" x1="10629.71" y1="13766.6" x2="10473.39" y2= "13558.26" />
  <line class="fil2 str3" x1="12274.37" y1="15977.03" x2="12105.53" y2= "15752.03" />
  <line class="fil2 str3" x1="10617.21" y1="13774.94" x2="10467.13" y2= "13568.68" />
  <line class="fil2 str3" x1="12268.11" y1="15987.44" x2="12099.27" y2= "15768.71" />
  <line class="fil2 str3" x1="10610.94" y1="13779.12" x2="10454.63" y2= "13570.78" />
  <line class="fil2 str3" x1="12261.85" y1="15997.89" x2="12093.01" y2= "15779.12" />
  <line class="fil2 str3" x1="10598.45" y1="13787.46" x2="10442.1" y2= "13579.12" />
  <line class="fil2 str3" x1="12255.61" y1="16014.57" x2="12086.77" y2= "15789.57" />
  <line class="fil2 str3" x1="10592.18" y1="13791.64" x2="10435.87" y2= "13583.31" />
  <line class="fil2 str3" x1="12249.35" y1="16024.99" x2="12080.51" y2= "15799.99" />
  <line class="fil2 str3" x1="10579.69" y1="13799.98" x2="10423.34" y2= "13591.64" />
  <line class="fil2 str3" x1="12243.09" y1="16035.4" x2="12074.24" y2= "15810.4" />
  <line class="fil2 str3" x1="10567.19" y1="13802.09" x2="10417.11" y2= "13595.83" />
  <line class="fil2 str3" x1="12236.85" y1="16045.85" x2="12074.24" y2= "15822.93" />
  <line class="fil2 str3" x1="10560.93" y1="13812.5" x2="10404.58" y2= "13604.16" />
  <line class="fil2 str3" x1="12230.59" y1="16056.27" x2="12068.01" y2= "15833.35" />
  <line class="fil2 str3" x1="10548.43" y1="13814.61" x2="10392.08" y2= "13606.26" />
  <line class="fil2 str3" x1="12224.33" y1="16066.68" x2="12061.75" y2= "15850.03" />
  <line class="fil2 str3" x1="10542.17" y1="13825.02" x2="10385.82" y2= "13616.68" />
  <line class="fil2 str3" x1="12218.09" y1="16077.13" x2="12055.48" y2= "15860.44" />
  <line class="fil2 str3" x1="10529.67" y1="13827.13" x2="10373.32" y2= "13625.05" />
  <line class="fil2 str3" x1="12211.83" y1="16087.55" x2="12049.25" y2= "15870.89" />
  <line class="fil2 str3" x1="10523.41" y1="13837.54" x2="10367.06" y2= "13629.2" />
  <line class="fil2 str3" x1="12205.57" y1="16097.96" x2="12042.99" y2= "15881.31" />
  <line class="fil2 str3" x1="10510.91" y1="13845.88" x2="10354.56" y2= "13637.57" />
  <line class="fil2 str3" x1="12199.33" y1="16108.42" x2="12036.72" y2= "15891.72" />
  <line class="fil2 str3" x1="10504.65" y1="13850.06" x2="10348.3" y2= "13641.72" />
  <line class="fil2 str3" x1="12193.07" y1="16118.83" x2="12030.49" y2= "15902.18" />
  <line class="fil2 str3" x1="10492.15" y1="13858.41" x2="10335.8" y2= "13650.09" />
  <line class="fil2 str3" x1="12186.81" y1="16129.24" x2="12024.23" y2= "15912.59" />
  <line class="fil2 str3" x1="10485.89" y1="13862.59" x2="10329.54" y2= "13654.24" />
  <line class="fil2 str3" x1="12180.57" y1="16145.93" x2="12011.73" y2= "15920.93" />
  <line class="fil2 str3" x1="10473.39" y1="13870.93" x2="10317.04" y2= "13662.61" />
  <line class="fil2 str3" x1="12174.31" y1="16156.37" x2="12005.47" y2= "15931.37" />
  <line class="fil2 str3" x1="10467.13" y1="13881.37" x2="10310.78" y2= "13673.02" />
  <line class="fil2 str3" x1="12168.05" y1="16166.79" x2="11999.2" y2= "15941.79" />
  <line class="fil2 str3" x1="10454.63" y1="13883.45" x2="10298.28" y2= "13675.13" />
  <line class="fil2 str3" x1="12155.55" y1="16175.13" x2="11992.97" y2= "15958.47" />
  <line class="fil2 str3" x1="10448.37" y1="13893.89" x2="10292.02" y2= "13685.54" />
  <line class="fil2 str3" x1="12149.29" y1="16185.57" x2="11986.71" y2= "15968.89" />
  <line class="fil2 str3" x1="10435.87" y1="13902.23" x2="10279.52" y2= "13693.88" />
  <line class="fil2 str3" x1="12143.05" y1="16195.99" x2="11980.44" y2= "15979.33" />
  <line class="fil2 str3" x1="10429.61" y1="13906.41" x2="10273.26" y2= "13698.06" />
  <line class="fil2 str3" x1="12136.79" y1="16206.41" x2="11974.21" y2= "15989.75" />
  <line class="fil2 str3" x1="10417.11" y1="13914.75" x2="10260.76" y2= "13706.4" />
  <line class="fil2 str3" x1="12130.53" y1="16216.85" x2="11967.95" y2= "16000.17" />
  <line class="fil2 str3" x1="10410.85" y1="13918.93" x2="10254.5" y2= "13716.85" />
  <line class="fil2 str3" x1="12124.29" y1="16227.28" x2="11961.68" y2= "16010.61" />
  <line class="fil2 str3" x1="10398.35" y1="13927.27" x2="10242" y2= "13718.92" />
  <line class="fil2 str3" x1="12118.03" y1="16237.69" x2="11955.45" y2= "16021.04" />
  <line class="fil2 str3" x1="10392.08" y1="13937.68" x2="10235.74" y2= "13729.37" />
  <line class="fil2 str3" x1="12111.77" y1="16248.13" x2="11949.19" y2= "16031.45" />
  <line class="fil2 str3" x1="10379.59" y1="13939.79" x2="10223.24" y2= "13731.44" />
  <line class="fil2 str3" x1="12105.53" y1="16258.56" x2="11942.92" y2= "16041.89" />
  <line class="fil2 str3" x1="10373.32" y1="13950.21" x2="10216.98" y2= "13741.89" />
  <line class="fil2 str3" x1="12093.01" y1="16266.89" x2="11936.69" y2= "16052.32" />
  <line class="fil2 str3" x1="10367.06" y1="13960.65" x2="10210.75" y2= "13752.31" />
  <line class="fil2 str3" x1="12086.77" y1="16277.34" x2="11924.16" y2= "16060.65" />
  <line class="fil2 str3" x1="10354.56" y1="13968.99" x2="10198.22" y2= "13760.64" />
  <line class="fil2 str3" x1="12080.51" y1="16287.75" x2="11917.93" y2= "16071.1" />
  <line class="fil2 str3" x1="10348.3" y1="13973.17" x2="10191.99" y2= "13764.83" />
  <line class="fil2 str3" x1="12074.24" y1="16298.17" x2="11911.67" y2= "16081.51" />
  <line class="fil2 str3" x1="10335.8" y1="13981.51" x2="10179.46" y2= "13773.16" />
  <line class="fil2 str3" x1="12068.01" y1="16308.62" x2="11905.4" y2= "16091.93" />
  <line class="fil2 str3" x1="10329.54" y1="13991.92" x2="10173.23" y2= "13783.62" />
  <line class="fil2 str3" x1="12061.75" y1="16312.77" x2="11899.17" y2= "16102.38" />
  <line class="fil2 str3" x1="10323.31" y1="13996.11" x2="10166.96" y2= "13787.77" />
  <line class="fil2 str3" x1="12055.48" y1="16323.21" x2="11892.91" y2= "16112.79" />
  <line class="fil2 str3" x1="10310.78" y1="14004.44" x2="10154.46" y2= "13796.14" />
  <line class="fil2 str3" x1="12042.99" y1="16331.55" x2="11886.64" y2= "16123.21" />
  <line class="fil2 str3" x1="10304.55" y1="14014.9" x2="10148.2" y2= "13806.55" />
  <line class="fil2 str3" x1="12036.72" y1="16341.97" x2="11874.15" y2= "16131.58" />
  <line class="fil2 str3" x1="10292.02" y1="14023.23" x2="10135.7" y2= "13814.89" />
  <line class="fil2 str3" x1="12030.49" y1="16352.42" x2="11867.88" y2= "16141.99" />
  <line class="fil2 str3" x1="10285.79" y1="14027.42" x2="10129.44" y2= "13819.07" />
  <line class="fil2 str3" x1="12024.23" y1="16362.84" x2="11861.65" y2= "16152.42" />
  <line class="fil2 str3" x1="10279.52" y1="14037.83" x2="10123.18" y2= "13829.48" />
  <line class="fil2 str3" x1="12017.96" y1="16373.25" x2="11855.39" y2= "16156.6" />
  <line class="fil2 str3" x1="10267.03" y1="14046.17" x2="10110.68" y2= "13837.85" />
  <line class="fil2 str3" x1="12005.47" y1="16381.62" x2="11849.12" y2= "16167.01" />
  <line class="fil2 str3" x1="10260.76" y1="14056.61" x2="10104.42" y2= "13842" />
  <line class="fil2 str3" x1="11999.2" y1="16392.03" x2="11842.89" y2= "16177.46" />
  <line class="fil2 str3" x1="10254.5" y1="14060.77" x2="10098.18" y2= "13852.46" />
  <line class="fil2 str3" x1="11992.97" y1="16402.46" x2="11830.36" y2= "16185.79" />
  <line class="fil2 str3" x1="10242" y1="14069.14" x2="10085.66" y2= "13860.79" />
  <line class="fil2 str3" x1="11986.71" y1="16412.9" x2="11824.13" y2= "16196.22" />
  <line class="fil2 str3" x1="10235.74" y1="14079.55" x2="10079.42" y2= "13871.21" />
  <line class="fil2 str3" x1="11974.21" y1="16421.24" x2="11817.86" y2= "16206.66" />
  <line class="fil2 str3" x1="10229.51" y1="14089.97" x2="10066.9" y2= "13879.57" />
  <line class="fil2 str3" x1="11967.95" y1="16425.42" x2="11811.6" y2= "16217.07" />
  <line class="fil2 str3" x1="10216.98" y1="14098.33" x2="10060.66" y2= "13883.73" />
  <line class="fil2 str3" x1="11961.68" y1="16435.83" x2="11805.37" y2= "16227.5" />
  <line class="fil2 str3" x1="10210.75" y1="14102.49" x2="10054.4" y2= "13894.18" />
  <line class="fil2 str3" x1="11955.45" y1="16446.26" x2="11792.84" y2= "16235.86" />
  <line class="fil2 str3" x1="10204.48" y1="14112.94" x2="10041.9" y2= "13902.52" />
  <line class="fil2 str3" x1="11942.92" y1="16454.62" x2="11786.61" y2= "16246.28" />
  <line class="fil2 str3" x1="10191.99" y1="14121.28" x2="10035.64" y2= "13912.93" />
  <line class="fil2 str3" x1="11936.69" y1="16465.04" x2="11780.34" y2= "16250.46" />
  <line class="fil2 str3" x1="10185.72" y1="14131.69" x2="10029.38" y2= "13923.37" />
  <line class="fil2 str3" x1="11930.43" y1="16475.46" x2="11774.08" y2= "16260.87" />
  <line class="fil2 str3" x1="10179.46" y1="14142.13" x2="10023.14" y2= "13927.53" />
  <line class="fil2 str3" x1="11924.16" y1="16485.9" x2="11761.58" y2= "16269.22" />
  <line class="fil2 str3" x1="10173.23" y1="14146.29" x2="10010.62" y2= "13935.89" />
  <line class="fil2 str3" x1="11911.67" y1="16487.98" x2="11755.32" y2= "16279.66" />
  <line class="fil2 str3" x1="10160.7" y1="14154.65" x2="10004.38" y2= "13946.32" />
  <line class="fil2 str3" x1="11905.4" y1="16498.42" x2="11749.09" y2= "16290.08" />
  <line class="fil2 str3" x1="10154.46" y1="14165.08" x2="9998.12" y2= "13956.73" />
  <line class="fil2 str3" x1="11899.17" y1="16508.84" x2="11742.82" y2= "16300.5" />
  <line class="fil2 str3" x1="10148.2" y1="14175.49" x2="9985.62" y2= "13965.1" />
  <line class="fil2 str3" x1="11892.91" y1="16519.26" x2="11730.33" y2= "16308.87" />
  <line class="fil2 str3" x1="10135.7" y1="14183.86" x2="9979.36" y2= "13969.25" />
  <line class="fil2 str3" x1="11880.41" y1="16527.63" x2="11724.06" y2= "16313.02" />
  <line class="fil2 str3" x1="10129.44" y1="14194.28" x2="9973.1" y2= "13979.69" />
  <line class="fil2 str3" x1="11874.15" y1="16531.78" x2="11717.8" y2= "16323.46" />
  <line class="fil2 str3" x1="10123.18" y1="14204.69" x2="9966.86" y2= "13990.12" />
  <line class="fil2 str3" x1="11867.88" y1="16542.22" x2="11705.3" y2= "16331.8" />
  <line class="fil2 str3" x1="10116.94" y1="14208.88" x2="9954.34" y2= "13998.45" />
  <line class="fil2 str3" x1="11855.39" y1="16550.56" x2="11699.04" y2= "16342.21" />
  <line class="fil2 str3" x1="10110.68" y1="14219.29" x2="9948.1" y2= "14008.9" />
  <line class="fil2 str3" x1="11849.12" y1="16560.97" x2="11692.81" y2= "16352.67" />
  <line class="fil2 str3" x1="10098.18" y1="14227.66" x2="9941.84" y2= "14019.32" />
  <line class="fil2 str3" x1="11842.89" y1="16571.43" x2="11680.28" y2= "16354.73" />
  <line class="fil2 str3" x1="10091.92" y1="14238.08" x2="9935.58" y2= "14029.73" />
  <line class="fil2 str3" x1="11830.36" y1="16573.49" x2="11674.05" y2= "16365.19" />
  <line class="fil2 str3" x1="10085.66" y1="14248.49" x2="9923.08" y2= "14031.84" />
  <line class="fil2 str3" x1="11824.13" y1="16583.95" x2="11667.78" y2= "16375.6" />
  <line class="fil2 str3" x1="10079.42" y1="14258.94" x2="9916.82" y2= "14042.25" />
  <line class="fil2 str3" x1="11817.86" y1="16594.36" x2="11655.29" y2= "16383.94" />
  <line class="fil2 str3" x1="10066.9" y1="14267.27" x2="9910.58" y2= "14052.7" />
  <line class="fil2 str3" x1="11805.37" y1="16602.7" x2="11649.02" y2= "16394.38" />
  <line class="fil2 str3" x1="10060.66" y1="14277.7" x2="9904.32" y2= "14063.12" />
  <line class="fil2 str3" x1="11799.1" y1="16606.88" x2="11642.76" y2= "16398.54" />
  <line class="fil2 str3" x1="10054.4" y1="14288.14" x2="9891.82" y2= "14071.46" />
  <line class="fil2 str3" x1="11792.84" y1="16617.3" x2="11630.26" y2= "16406.91" />
  <line class="fil2 str3" x1="10048.14" y1="14298.55" x2="9885.56" y2= "14081.9" />
  <line class="fil2 str3" x1="11780.34" y1="16625.67" x2="11624" y2= "16417.32" />
  <line class="fil2 str3" x1="10041.9" y1="14308.98" x2="9879.29" y2= "14092.31" />
  <line class="fil2 str3" x1="11774.08" y1="16636.08" x2="11617.76" y2= "16427.74" />
  <line class="fil2 str3" x1="10035.64" y1="14313.16" x2="9873.06" y2= "14102.74" />
  <line class="fil2 str3" x1="11761.58" y1="16638.19" x2="11605.24" y2= "16429.84" />
  <line class="fil2 str3" x1="10023.14" y1="14321.5" x2="9866.8" y2= "14113.18" />
  <line class="fil2 str3" x1="11755.32" y1="16648.6" x2="11599" y2= "16440.26" />
  <line class="fil2 str3" x1="10016.88" y1="14331.94" x2="9860.53" y2= "14123.6" />
  <line class="fil2 str3" x1="11749.09" y1="16659.02" x2="11592.74" y2= "16450.71" />
  <line class="fil2 str3" x1="10010.62" y1="14342.36" x2="9848.04" y2= "14131.94" />
  <line class="fil2 str3" x1="11736.56" y1="16667.38" x2="11580.24" y2= "16459.05" />
  <line class="fil2 str3" x1="10004.38" y1="14352.78" x2="9841.77" y2= "14142.38" />
  <line class="fil2 str3" x1="11730.33" y1="16671.54" x2="11573.98" y2= "16463.23" />
  <line class="fil2 str3" x1="9998.12" y1="14363.22" x2="9835.54" y2= "14152.8" />
  <line class="fil2 str3" x1="11717.8" y1="16679.9" x2="11561.48" y2= "16471.57" />
  <line class="fil2 str3" x1="9991.86" y1="14373.64" x2="9829.28" y2= "14156.98" />
  <line class="fil2 str3" x1="11711.57" y1="16690.33" x2="11555.22" y2= "16481.98" />
  <line class="fil2 str3" x1="9979.36" y1="14381.98" x2="9823.01" y2= "14167.4" />
  <line class="fil2 str3" x1="11705.3" y1="16694.51" x2="11548.96" y2= "16486.16" />
  <line class="fil2 str3" x1="9973.1" y1="14392.42" x2="9816.78" y2= "14177.82" />
  <line class="fil2 str3" x1="11692.81" y1="16702.85" x2="11536.46" y2= "16494.5" />
  <line class="fil2 str3" x1="9966.86" y1="14402.84" x2="9804.25" y2= "14186.18" />
  <line class="fil2 str3" x1="11686.54" y1="16713.26" x2="11530.2" y2= "16504.95" />
  <line class="fil2 str3" x1="9960.6" y1="14413.26" x2="9798.02" y2= "14196.6" />
  <line class="fil2 str3" x1="11674.05" y1="16715.37" x2="11517.7" y2= "16507.02" />
  <line class="fil2 str3" x1="9954.34" y1="14423.7" x2="9791.76" y2= "14207.02" />
  <line class="fil2 str3" x1="11667.78" y1="16725.78" x2="11511.44" y2= "16517.47" />
  <line class="fil2 str3" x1="9948.1" y1="14434.12" x2="9785.49" y2= "14217.46" />
  <line class="fil2 str3" x1="11655.29" y1="16734.15" x2="11498.94" y2= "16525.81" />
  <line class="fil2 str3" x1="9941.84" y1="14444.54" x2="9779.26" y2= "14227.88" />
  <line class="fil2 str3" x1="11649.02" y1="16738.3" x2="11492.68" y2= "16529.99" />
  <line class="fil2 str3" x1="9935.58" y1="14454.98" x2="9773" y2= "14238.3" />
  <line class="fil2 str3" x1="11636.53" y1="16746.67" x2="11480.18" y2= "16538.33" />
  <line class="fil2 str3" x1="9929.34" y1="14465.41" x2="9766.73" y2= "14248.74" />
  <line class="fil2 str3" x1="11630.26" y1="16757.09" x2="11473.92" y2= "16548.74" />
  <line class="fil2 str3" x1="9923.08" y1="14475.82" x2="9760.5" y2= "14259.17" />
  <line class="fil2 str3" x1="11617.76" y1="16759.19" x2="11461.42" y2= "16550.85" />
  <line class="fil2 str3" x1="9916.82" y1="14486.26" x2="9747.97" y2= "14267.5" />
  <line class="fil2 str3" x1="11611.5" y1="16769.61" x2="11455.16" y2= "16561.26" />
  <line class="fil2 str3" x1="9910.58" y1="14502.95" x2="9741.74" y2= "14277.95" />
  <line class="fil2 str3" x1="11599" y1="16777.95" x2="11448.92" y2= "16571.71" />
  <line class="fil2 str3" x1="9898.05" y1="14511.28" x2="9735.48" y2= "14288.36" />
  <line class="fil2 str3" x1="11592.74" y1="16782.13" x2="11436.4" y2= "16573.78" />
  <line class="fil2 str3" x1="9891.82" y1="14521.7" x2="9729.21" y2= "14298.78" />
  <line class="fil2 str3" x1="11580.24" y1="16790.47" x2="11430.16" y2= "16584.23" />
  <line class="fil2 str3" x1="9885.56" y1="14532.15" x2="9722.98" y2= "14315.46" />
  <line class="fil2 str3" x1="11573.98" y1="16794.65" x2="11417.64" y2= "16586.3" />
  <line class="fil2 str3" x1="9879.29" y1="14542.56" x2="9716.72" y2= "14325.91" />
  <line class="fil2 str3" x1="11561.48" y1="16802.99" x2="11405.14" y2= "16594.67" />
  <line class="fil2 str3" x1="9873.06" y1="14552.98" x2="9710.45" y2= "14336.32" />
  <line class="fil2 str3" x1="11555.22" y1="16813.43" x2="11398.88" y2= "16605.09" />
  <line class="fil2 str3" x1="9866.8" y1="14563.43" x2="9704.22" y2= "14346.74" />
  <line class="fil2 str3" x1="11542.72" y1="16815.51" x2="11386.38" y2= "16607.19" />
  <line class="fil2 str3" x1="9860.53" y1="14573.84" x2="9697.96" y2= "14357.19" />
  <line class="fil2 str3" x1="11536.46" y1="16825.95" x2="11380.12" y2= "16617.61" />
  <line class="fil2 str3" x1="9854.3" y1="14584.27" x2="9691.69" y2= "14367.6" />
  <line class="fil2 str3" x1="11523.96" y1="16828.03" x2="11367.62" y2= "16619.71" />
  <line class="fil2 str3" x1="9848.04" y1="14594.71" x2="9685.46" y2= "14378.03" />
  <line class="fil2 str3" x1="11517.7" y1="16838.47" x2="11361.36" y2= "16630.13" />
  <line class="fil2 str3" x1="9841.77" y1="14611.39" x2="9679.2" y2= "14388.47" />
  <line class="fil2 str3" x1="11505.2" y1="16840.55" x2="11348.86" y2= "16638.47" />
  <line class="fil2 str3" x1="9835.54" y1="14621.81" x2="9672.93" y2= "14398.88" />
  <line class="fil2 str3" x1="11498.94" y1="16850.99" x2="11342.59" y2= "16642.65" />
  <line class="fil2 str3" x1="9829.28" y1="14632.22" x2="9666.7" y2= "14409.31" />
  <line class="fil2 str3" x1="11486.44" y1="16859.33" x2="11330.1" y2= "16650.99" />
  <line class="fil2 str3" x1="9823.01" y1="14642.67" x2="9660.43" y2= "14419.75" />
  <line class="fil2 str3" x1="11473.92" y1="16861.43" x2="11323.83" y2= "16655.17" />
  <line class="fil2 str3" x1="9816.78" y1="14653.09" x2="9654.17" y2= "14430.16" />
  <line class="fil2 str3" x1="11467.68" y1="16871.85" x2="11311.34" y2= "16663.51" />
  <line class="fil2 str3" x1="9816.78" y1="14665.59" x2="9647.94" y2= "14446.85" />
  <line class="fil2 str3" x1="11455.16" y1="16873.95" x2="11298.84" y2= "16665.61" />
  <line class="fil2 str3" x1="9810.52" y1="14676.03" x2="9641.67" y2= "14457.26" />
  <line class="fil2 str3" x1="11448.92" y1="16884.37" x2="11292.58" y2= "16676.03" />
  <line class="fil2 str3" x1="9804.25" y1="14692.71" x2="9635.41" y2= "14467.71" />
  <line class="fil2 str3" x1="11436.4" y1="16886.47" x2="11280.08" y2= "16678.13" />
  <line class="fil2 str3" x1="9798.02" y1="14703.13" x2="9629.18" y2= "14478.13" />
  <line class="fil2 str3" x1="11423.9" y1="16894.81" x2="11273.82" y2= "16688.55" />
  <line class="fil2 str3" x1="9791.76" y1="14713.54" x2="9622.91" y2= "14488.54" />
  <line class="fil2 str3" x1="11417.64" y1="16898.99" x2="11261.32" y2= "16690.66" />
  <line class="fil2 str3" x1="9785.49" y1="14723.99" x2="9616.65" y2= "14498.99" />
  <line class="fil2 str3" x1="11405.14" y1="16907.33" x2="11248.79" y2= "16698.99" />
  <line class="fil2 str3" x1="9779.26" y1="14734.41" x2="9610.42" y2= "14515.67" />
  <line class="fil2 str3" x1="11398.88" y1="16911.51" x2="11242.56" y2= "16703.18" />
  <line class="fil2 str3" x1="9773" y1="14751.09" x2="9604.15" y2= "14526.09" />
  <line class="fil2 str3" x1="11386.38" y1="16919.85" x2="11230.03" y2= "16711.51" />
  <line class="fil2 str3" x1="9766.73" y1="14761.5" x2="9597.89" y2= "14536.5" />
  <line class="fil2 str3" x1="11373.88" y1="16921.96" x2="11217.54" y2= "16713.61" />
  <line class="fil2 str3" x1="9760.5" y1="14771.96" x2="9591.66" y2= "14546.96" />
  <line class="fil2 str3" x1="11367.62" y1="16932.37" x2="11211.27" y2= "16724.03" />
  <line class="fil2 str3" x1="9754.24" y1="14782.37" x2="9585.39" y2= "14557.37" />
  <line class="fil2 str3" x1="11355.12" y1="16934.48" x2="11198.78" y2= "16726.13" />
  <line class="fil2 str3" x1="9754.24" y1="14801.13" x2="9579.13" y2= "14567.78" />
  <line class="fil2 str3" x1="11342.59" y1="16936.55" x2="11186.28" y2= "16728.24" />
  <line class="fil2 str3" x1="9747.97" y1="14811.54" x2="9579.13" y2= "14586.54" />
  <line class="fil2 str3" x1="11336.36" y1="16947" x2="11180.02" y2= "16738.65" />
  <line class="fil2 str3" x1="9741.74" y1="14822" x2="9572.9" y2= "14597" />
  <line class="fil2 str3" x1="11323.83" y1="16949.07" x2="11167.52" y2= "16740.76" />
  <line class="fil2 str3" x1="9735.48" y1="14832.41" x2="9566.63" y2= "14607.41" />
  <line class="fil2 str3" x1="11311.34" y1="16957.44" x2="11154.99" y2= "16749.09" />
  <line class="fil2 str3" x1="9729.21" y1="14849.09" x2="9560.37" y2= "14617.82" />
  <line class="fil2 str3" x1="11305.07" y1="16961.59" x2="11148.76" y2= "16753.28" />
  <line class="fil2 str3" x1="9722.98" y1="14859.51" x2="9554.14" y2= "14634.51" />
  <line class="fil2 str3" x1="11292.58" y1="16969.96" x2="11136.23" y2= "16761.61" />
  <line class="fil2 str3" x1="9722.98" y1="14872.04" x2="9547.87" y2= "14644.95" />
  <line class="fil2 str3" x1="11280.08" y1="16972.04" x2="11123.73" y2= "16763.72" />
  <line class="fil2 str3" x1="9716.72" y1="14888.71" x2="9541.61" y2= "14655.37" />
  <line class="fil2 str3" x1="11273.82" y1="16976.22" x2="11111.24" y2= "16765.8" />
  <line class="fil2 str3" x1="9710.45" y1="14899.13" x2="9535.38" y2= "14665.79" />
  <line class="fil2 str3" x1="11261.32" y1="16984.56" x2="11104.97" y2= "16776.24" />
  <line class="fil2 str3" x1="9704.22" y1="14909.55" x2="9535.38" y2= "14684.55" />
  <line class="fil2 str3" x1="11248.79" y1="16986.65" x2="11092.48" y2= "16778.32" />
  <line class="fil2 str3" x1="9697.96" y1="14926.23" x2="9529.11" y2= "14694.99" />
  <line class="fil2 str3" x1="11236.3" y1="16994.99" x2="11079.95" y2= "16780.41" />
  <line class="fil2 str3" x1="9697.96" y1="14938.76" x2="9522.85" y2= "14705.41" />
  <line class="fil2 str3" x1="11230.03" y1="16999.17" x2="11067.45" y2= "16788.75" />
  <line class="fil2 str3" x1="9691.69" y1="14949.17" x2="9516.62" y2= "14715.83" />
  <line class="fil2 str3" x1="11217.54" y1="17001.28" x2="11061.19" y2= "16792.93" />
  <line class="fil2 str3" x1="9685.46" y1="14965.86" x2="9510.35" y2= "14732.51" />
  <line class="fil2 str3" x1="11205.04" y1="17009.62" x2="11048.69" y2= "16795.04" />
  <line class="fil2 str3" x1="9679.2" y1="14976.27" x2="9504.09" y2= "14742.95" />
  <line class="fil2 str3" x1="11192.51" y1="17011.72" x2="11036.2" y2= "16803.38" />
  <line class="fil2 str3" x1="9679.2" y1="14988.8" x2="9504.09" y2= "14755.45" />
  <line class="fil2 str3" x1="11180.02" y1="17013.79" x2="11023.67" y2= "16805.48" />
  <line class="fil2 str3" x1="9672.93" y1="15005.47" x2="9497.86" y2= "14772.14" />
  <line class="fil2 str3" x1="11173.75" y1="17024.24" x2="11011.17" y2= "16807.55" />
  <line class="fil2 str3" x1="9666.7" y1="15015.9" x2="9491.59" y2= "14782.55" />
  <line class="fil2 str3" x1="11161.26" y1="17026.31" x2="11004.91" y2= "16818" />
  <line class="fil2 str3" x1="9666.7" y1="15034.66" x2="9485.33" y2= "14792.99" />
  <line class="fil2 str3" x1="11148.76" y1="17028.42" x2="10992.41" y2= "16820.07" />
  <line class="fil2 str3" x1="9660.43" y1="15045.07" x2="9485.33" y2= "14811.75" />
  <line class="fil2 str3" x1="11136.23" y1="17036.75" x2="10979.92" y2= "16822.18" />
  <line class="fil2 str3" x1="9654.17" y1="15055.51" x2="9479.1" y2= "14822.18" />
  <line class="fil2 str3" x1="11123.73" y1="17038.86" x2="10967.39" y2= "16824.28" />
  <line class="fil2 str3" x1="9647.94" y1="15072.2" x2="9472.83" y2= "14832.59" />
  <line class="fil2 str3" x1="11117.47" y1="17043.04" x2="10954.89" y2= "16832.62" />
  <line class="fil2 str3" x1="9647.94" y1="15084.7" x2="9466.57" y2= "14849.27" />
  <line class="fil2 str3" x1="11104.97" y1="17045.12" x2="10942.4" y2= "16834.73" />
  <line class="fil2 str3" x1="9641.67" y1="15101.38" x2="9466.57" y2= "14861.79" />
  <line class="fil2 str3" x1="11092.48" y1="17053.49" x2="10929.87" y2= "16836.79" />
  <line class="fil2 str3" x1="9641.67" y1="15113.87" x2="9460.34" y2= "14878.48" />
  <line class="fil2 str3" x1="11079.95" y1="17055.55" x2="10923.64" y2= "16840.98" />
  <line class="fil2 str3" x1="9635.41" y1="15130.55" x2="9454.07" y2= "14888.9" />
  <line class="fil2 str3" x1="11067.45" y1="17057.66" x2="10911.11" y2= "16849.31" />
  <line class="fil2 str3" x1="9629.18" y1="15141" x2="9447.81" y2= "14899.31" />
  <line class="fil2 str3" x1="11054.96" y1="17059.77" x2="10898.61" y2= "16851.42" />
  <line class="fil2 str3" x1="9629.18" y1="15159.76" x2="9447.81" y2= "14918.07" />
  <line class="fil2 str3" x1="11042.43" y1="17068.1" x2="10886.11" y2= "16853.53" />
  <line class="fil2 str3" x1="9622.91" y1="15170.18" x2="9441.58" y2= "14928.52" />
  <line class="fil2 str3" x1="11029.93" y1="17070.2" x2="10873.59" y2= "16855.59" />
  <line class="fil2 str3" x1="9622.91" y1="15188.94" x2="9435.31" y2= "14945.2" />
  <line class="fil2 str3" x1="11023.67" y1="17074.35" x2="10861.09" y2= "16857.7" />
  <line class="fil2 str3" x1="9616.65" y1="15199.35" x2="9435.31" y2= "14957.7" />
  <line class="fil2 str3" x1="11011.17" y1="17076.46" x2="10848.59" y2= "16859.81" />
  <line class="fil2 str3" x1="9610.42" y1="15216.04" x2="9429.05" y2= "14974.37" />
  <line class="fil2 str3" x1="10998.68" y1="17078.57" x2="10836.07" y2= "16868.14" />
  <line class="fil2 str3" x1="9610.42" y1="15228.56" x2="9422.81" y2= "14984.8" />
  <line class="fil2 str3" x1="10986.15" y1="17086.9" x2="10823.57" y2= "16870.24" />
  <line class="fil2 str3" x1="9604.15" y1="15245.24" x2="9422.81" y2= "15003.56" />
  <line class="fil2 str3" x1="10973.65" y1="17089.01" x2="10811.07" y2= "16872.32" />
  <line class="fil2 str3" x1="9604.15" y1="15264" x2="9416.55" y2= "15014" />
  <line class="fil2 str3" x1="10961.16" y1="17091.08" x2="10798.55" y2= "16874.42" />
  <line class="fil2 str3" x1="9597.89" y1="15274.42" x2="9416.55" y2= "15032.76" />
  <line class="fil2 str3" x1="10948.63" y1="17093.18" x2="10786.05" y2= "16876.53" />
  <line class="fil2 str3" x1="9597.89" y1="15293.18" x2="9410.29" y2= "15043.18" />
  <line class="fil2 str3" x1="10936.13" y1="17095.29" x2="10773.55" y2= "16878.6" />
  <line class="fil2 str3" x1="9591.66" y1="15309.86" x2="9404.05" y2= "15059.86" />
  <line class="fil2 str3" x1="10923.64" y1="17097.36" x2="10761.03" y2= "16880.7" />
  <line class="fil2 str3" x1="9591.66" y1="15322.36" x2="9404.05" y2= "15072.36" />
  <line class="fil2 str3" x1="10911.11" y1="17099.46" x2="10748.53" y2= "16882.81" />
  <line class="fil2 str3" x1="9585.39" y1="15339.04" x2="9397.79" y2= "15089.04" />
  <line class="fil2 str3" x1="10898.61" y1="17101.57" x2="10736.03" y2= "16884.88" />
  <line class="fil2 str3" x1="9585.39" y1="15357.8" x2="9397.79" y2= "15101.56" />
  <line class="fil2 str3" x1="10886.11" y1="17109.91" x2="10723.51" y2= "16886.98" />
  <line class="fil2 str3" x1="9585.39" y1="15370.32" x2="9391.53" y2= "15118.24" />
  <line class="fil2 str3" x1="10873.59" y1="17112" x2="10711.01" y2= "16889.09" />
  <line class="fil2 str3" x1="9579.13" y1="15387" x2="9391.53" y2= "15130.74" />
  <line class="fil2 str3" x1="10861.09" y1="17114.08" x2="10692.25" y2= "16889.08" />
  <line class="fil2 str3" x1="9579.13" y1="15405.76" x2="9385.29" y2= "15147.42" />
  <line class="fil2 str3" x1="10848.59" y1="17116.19" x2="10679.75" y2= "16891.19" />
  <line class="fil2 str3" x1="9572.9" y1="15416.18" x2="9385.29" y2= "15166.18" />
  <line class="fil2 str3" x1="10836.07" y1="17118.28" x2="10667.23" y2= "16893.28" />
  <line class="fil2 str3" x1="9572.9" y1="15434.94" x2="9379.03" y2= "15176.6" />
  <line class="fil2 str3" x1="10823.57" y1="17120.36" x2="10654.73" y2= "16895.36" />
  <line class="fil2 str3" x1="9572.9" y1="15453.7" x2="9379.03" y2= "15195.36" />
  <line class="fil2 str3" x1="10804.81" y1="17120.39" x2="10642.23" y2= "16897.47" />
  <line class="fil2 str3" x1="9566.63" y1="15470.38" x2="9372.77" y2= "15212.03" />
  <line class="fil2 str3" x1="10792.31" y1="17122.49" x2="10623.47" y2= "16897.49" />
  <line class="fil2 str3" x1="9566.63" y1="15489.14" x2="9372.77" y2= "15224.56" />
  <line class="fil2 str3" x1="10779.79" y1="17124.56" x2="10610.94" y2= "16899.56" />
  <line class="fil2 str3" x1="9566.63" y1="15501.64" x2="9366.53" y2= "15241.25" />
  <line class="fil2 str3" x1="10767.29" y1="17126.67" x2="10598.45" y2= "16901.67" />
  <line class="fil2 str3" x1="9566.63" y1="15520.4" x2="9366.53" y2= "15260.01" />
  <line class="fil2 str3" x1="10754.79" y1="17128.77" x2="10585.95" y2= "16903.77" />
  <line class="fil2 str3" x1="9560.37" y1="15537.08" x2="9366.53" y2= "15272.51" />
  <line class="fil2 str3" x1="10742.27" y1="17130.84" x2="10567.19" y2= "16897.53" />
  <line class="fil2 str3" x1="9560.37" y1="15555.84" x2="9360.27" y2= "15289.18" />
  <line class="fil2 str3" x1="10723.51" y1="17124.6" x2="10554.66" y2= "16899.6" />
  <line class="fil2 str3" x1="9560.37" y1="15574.6" x2="9360.27" y2= "15307.94" />
  <line class="fil2 str3" x1="10711.01" y1="17126.71" x2="10542.17" y2= "16901.71" />
  <line class="fil2 str3" x1="9560.37" y1="15593.36" x2="9354.01" y2= "15324.62" />
  <line class="fil2 str3" x1="10698.51" y1="17128.81" x2="10523.41" y2= "16901.73" />
  <line class="fil2 str3" x1="9560.37" y1="15612.12" x2="9354.01" y2= "15337.12" />
  <line class="fil2 str3" x1="10685.99" y1="17130.88" x2="10510.91" y2= "16897.57" />
  <line class="fil2 str3" x1="9560.37" y1="15630.88" x2="9354.01" y2= "15355.88" />
  <line class="fil2 str3" x1="10673.49" y1="17132.99" x2="10498.38" y2= "16899.64" />
  <line class="fil2 str3" x1="9560.37" y1="15649.64" x2="9347.77" y2= "15372.56" />
  <line class="fil2 str3" x1="10654.73" y1="17133.01" x2="10479.62" y2= "16899.66" />
  <line class="fil2 str3" x1="9554.14" y1="15666.32" x2="9347.77" y2= "15391.32" />
  <line class="fil2 str3" x1="10642.23" y1="17135.09" x2="10467.13" y2= "16895.51" />
  <line class="fil2 str3" x1="9554.14" y1="15685.09" x2="9347.77" y2= "15410.08" />
  <line class="fil2 str3" x1="10629.71" y1="17130.92" x2="10448.37" y2= "16895.53" />
  <line class="fil2 str3" x1="9554.14" y1="15703.85" x2="9347.77" y2= "15422.61" />
  <line class="fil2 str3" x1="10610.94" y1="17130.94" x2="10435.87" y2= "16897.61" />
  <line class="fil2 str3" x1="9554.14" y1="15722.61" x2="9341.51" y2= "15439.29" />
  <line class="fil2 str3" x1="10598.45" y1="17133.05" x2="10417.11" y2= "16891.37" />
  <line class="fil2 str3" x1="9560.37" y1="15749.7" x2="9341.51" y2= "15458.05" />
  <line class="fil2 str3" x1="10585.95" y1="17135.13" x2="10404.58" y2= "16893.46" />
  <line class="fil2 str3" x1="9560.37" y1="15768.46" x2="9341.51" y2= "15476.81" />
  <line class="fil2 str3" x1="10567.19" y1="17128.89" x2="10385.82" y2= "16887.23" />
  <line class="fil2 str3" x1="9560.37" y1="15787.22" x2="9341.51" y2= "15495.57" />
  <line class="fil2 str3" x1="10554.66" y1="17130.99" x2="10367.06" y2= "16887.25" />
  <line class="fil2 str3" x1="9560.37" y1="15805.98" x2="9341.51" y2= "15514.33" />
  <line class="fil2 str3" x1="10535.9" y1="17131.01" x2="10354.56" y2= "16883.09" />
  <line class="fil2 str3" x1="9560.37" y1="15831.01" x2="9335.25" y2= "15531.01" />
  <line class="fil2 str3" x1="10523.41" y1="17126.85" x2="10335.8" y2= "16876.85" />
  <line class="fil2 str3" x1="9560.37" y1="15849.77" x2="9335.25" y2= "15549.77" />
  <line class="fil2 str3" x1="10504.65" y1="17126.85" x2="10317.04" y2= "16876.85" />
  <line class="fil2 str3" x1="9566.63" y1="15876.84" x2="9335.25" y2= "15568.53" />
  <line class="fil2 str3" x1="10492.15" y1="17128.95" x2="10298.28" y2= "16870.61" />
  <line class="fil2 str3" x1="9566.63" y1="15895.6" x2="9335.25" y2= "15587.29" />
  <line class="fil2 str3" x1="10473.39" y1="17122.71" x2="10279.52" y2= "16864.37" />
  <line class="fil2 str3" x1="9572.9" y1="15922.71" x2="9335.25" y2= "15606.05" />
  <line class="fil2 str3" x1="10460.86" y1="17124.81" x2="10260.76" y2= "16858.13" />
  <line class="fil2 str3" x1="9572.9" y1="15941.47" x2="9335.25" y2= "15624.81" />
  <line class="fil2 str3" x1="10442.1" y1="17118.57" x2="10242" y2= "16851.89" />
  <line class="fil2 str3" x1="9579.13" y1="15968.57" x2="9335.25" y2= "15643.57" />
  <line class="fil2 str3" x1="10429.61" y1="17120.65" x2="10223.24" y2= "16851.91" />
  <line class="fil2 str3" x1="9579.13" y1="15993.56" x2="9335.25" y2= "15668.56" />
  <line class="fil2 str3" x1="10410.85" y1="17114.41" x2="10204.48" y2= "16839.41" />
  <line class="fil2 str3" x1="9585.39" y1="16020.67" x2="9335.25" y2= "15687.32" />
  <line class="fil2 str3" x1="10392.08" y1="17114.43" x2="10185.72" y2= "16833.17" />
  <line class="fil2 str3" x1="9591.66" y1="16041.51" x2="9335.25" y2= "15706.08" />
  <line class="fil2 str3" x1="10373.32" y1="17108.19" x2="10160.7" y2= "16824.84" />
  <line class="fil2 str3" x1="9597.89" y1="16068.61" x2="9341.51" y2= "15726.93" />
  <line class="fil2 str3" x1="10360.83" y1="17104.04" x2="10141.94" y2= "16818.6" />
  <line class="fil2 str3" x1="9604.15" y1="16101.95" x2="9341.51" y2= "15751.95" />
  <line class="fil2 str3" x1="10342.07" y1="17104.06" x2="10116.94" y2= "16804.06" />
  <line class="fil2 str3" x1="9610.42" y1="16129.06" x2="9341.51" y2= "15770.71" />
  <line class="fil2 str3" x1="10323.31" y1="17097.82" x2="10091.92" y2= "16789.47" />
  <line class="fil2 str3" x1="9616.65" y1="16156.12" x2="9341.51" y2= "15789.47" />
  <line class="fil2 str3" x1="10304.55" y1="17091.58" x2="10066.9" y2= "16781.15" />
  <line class="fil2 str3" x1="9629.18" y1="16191.58" x2="9347.77" y2= "15816.58" />
  <line class="fil2 str3" x1="10285.79" y1="17085.34" x2="10041.9" y2= "16760.34" />
  <line class="fil2 str3" x1="9641.67" y1="16226.99" x2="9347.77" y2= "15835.34" />
  <line class="fil2 str3" x1="10267.03" y1="17085.33" x2="10016.88" y2= "16745.75" />
  <line class="fil2 str3" x1="9654.17" y1="16262.4" x2="9347.77" y2= "15860.33" />
  <line class="fil2 str3" x1="10248.27" y1="17079.09" x2="9985.62" y2= "16722.86" />
  <line class="fil2 str3" x1="9672.93" y1="16306.17" x2="9354.01" y2= "15881.16" />
  <line class="fil2 str3" x1="10229.51" y1="17072.85" x2="9948.1" y2= "16691.62" />
  <line class="fil2 str3" x1="9691.69" y1="16356.19" x2="9354.01" y2= "15906.19" />
  <line class="fil2 str3" x1="10210.75" y1="17066.61" x2="9904.32" y2= "16652.03" />
  <line class="fil2 str3" x1="9722.98" y1="16410.38" x2="9360.27" y2= "15933.29" />
  <line class="fil2 str3" x1="10191.99" y1="17060.37" x2="9366.53" y2= "15954.14" />
  <line class="fil2 str3" x1="10173.23" y1="17047.9" x2="9366.53" y2= "15979.13" />
  <line class="fil2 str3" x1="10148.2" y1="17039.58" x2="9372.77" y2= "16006.23" />
  <line class="fil2 str3" x1="10129.44" y1="17033.34" x2="9379.03" y2= "16033.34" />
  <line class="fil2 str3" x1="10104.42" y1="17018.75" x2="9385.29" y2= "16060.41" />
  <line class="fil2 str3" x1="10085.66" y1="17012.51" x2="9391.53" y2= "16087.51" />
  <line class="fil2 str3" x1="10060.66" y1="16997.94" x2="9397.79" y2= "16120.85" />
  <line class="fil2 str3" x1="10035.64" y1="16983.38" x2="9410.29" y2= "16150.03" />
  <line class="fil2 str3" x1="10010.62" y1="16968.79" x2="9416.55" y2= "16183.37" />
  <line class="fil2 str3" x1="9979.36" y1="16952.13" x2="9429.05" y2= "16218.81" />
  <line class="fil2 str3" x1="9954.34" y1="16937.58" x2="9441.58" y2= "16254.24" />
  <line class="fil2 str3" x1="9923.08" y1="16914.65" x2="9454.07" y2= "16289.65" />
  <line class="fil2 str3" x1="9891.82" y1="16891.76" x2="9472.83" y2= "16333.41" />
  <line class="fil2 str3" x1="9854.3" y1="16866.78" x2="9491.59" y2= "16377.17" />
  <line class="fil2 str3" x1="9816.78" y1="16829.28" x2="9516.62" y2= "16429.28" />
  <line class="fil2 str3" x1="9760.5" y1="16779.3" x2="9547.87" y2= "16495.96" />
 </g>
</svg>
