<?xml version="1.0" encoding="UTF-8"?>
<!DOCTYPE svg PUBLIC "-//W3C//DTD SVG 1.1//EN" "http://www.w3.org/Graphics/SVG/1.1/DTD/svg11.dtd">
<!-- Creator: CorelDRAW -->
<svg xmlns="http://www.w3.org/2000/svg" xml:space="preserve" width="210mm" height="297mm" version="1.1" style="shape-rendering:geometricPrecision; text-rendering:geometricPrecision; image-rendering:optimizeQuality; fill-rule:evenodd; clip-rule:evenodd"
viewBox="0 0 21000 29700"
 xmlns:xlink="http://www.w3.org/1999/xlink"
 xmlns:xodm="http://www.corel.com/coreldraw/odm/2003">
 <defs>
  <style type="text/css">
   <![CDATA[
    .str0 {stroke:black;stroke-width:70.56;stroke-linecap:round;stroke-linejoin:round;stroke-miterlimit:10}
    .fil0 {fill:none;fill-rule:nonzero}
   ]]>
  </style>
 </defs>
 <g id="圖層_x0020_1">
  <metadata id="CorelCorpID_0Corel-Layer"/>
  <path class="fil0 str0" d="M8123.04 5016.63l10.61 179.99 42.34 174.72 63.53 174.71m-116.48 -921.22l10.61 180.02 42.34 174.71 63.53 174.72 90 164.13m3663.73 1778.91l5.28 0 0 -5.3 5.3 -5.3 0 -5.28m227.67 -121.79l5.28 -5.27 0 -5.31m-338.83 174.72l0 -15.89 31.77 0 26.46 -5.3 21.19 -10.58 26.46 -10.58m232.95 -132.37c64.06,-44.19 135.82,-106.33 137.67,-190.59m-2165.41 153.52l0 15.89 5.3 0m-5.3 -15.89c534.9,152.31 1133.88,209.66 1688.91,195.9m-1159.47 365.32l0 -5.31 5.28 0 0 -10.58m90.02 -1387.13l-31.76 -164.11 -52.96 -169.44m1148.89 979.48c0,-14.13 0,-28.24 0,-42.37m-1614.8 -180c497.15,141.28 1098.69,190.33 1614.8,180m-1614.8 -180l0 5.28 -5.28 5.3 0 10.59 -5.3 5.3 0 15.88c508.16,141.9 1098.94,190.15 1625.38,180.02m105.88 -26.49l0 -5.28 -5.3 -5.3 0 -5.3 -5.28 -5.28 0 -5.3 -5.3 -5.31 -5.3 0 0 -5.27m-84.7 21.16l21.16 0 42.38 -10.58 21.16 -10.58m-84.7 63.53l31.77 0 26.46 -5.3 21.19 -10.58 26.46 -10.61m232.95 -132.34c1.6,-17.56 -8.28,-31.59 -21.16,-42.37m-614.17 -349.43l-5.28 -5.28 -10.6 0m630.05 354.71c151.22,-72.79 175.94,-241.25 26.46,-333.55 -179.04,-118.31 -457.36,-120.61 -640.63,-15.88m635.33 391.8c64.06,-44.23 135.82,-106.33 137.67,-190.6m-990.06 -79.42l-15.88 0m-232.95 0l-15.88 0c64.23,44.3 200.38,44.3 264.71,0m-481.8 -132.36l-5.28 -5.31 -5.3 5.31 -5.3 0m-52.93 -84.72l10.58 -10.58m-95.3 -322.97l5.31 0 0 -5.28 5.27 0 0 -5.3m-21.16 -52.95l5.28 -5.28 0 -5.3m-5.28 -746.51l5.28 0 0 -10.58m-90 -158.83l-15.88 0m-1318.3 -773l-10.58 0 -5.3 5.3m-873.58 349.43l-15.88 0m338.85 -68.83c-117.54,-6.18 -219.36,11.38 -322.97,68.83m-238.24 137.65l-5.31 0 0 -5.28 -5.28 0 0 5.28 -5.3 0m-21.18 47.65l-10.58 0 -5.31 5.3 -5.27 0 0 5.3 -10.61 10.58m68.84 -68.83l-15.89 10.6 -10.58 10.58 -5.3 10.58 -5.3 15.89 5.3 195.9 31.77 195.9 63.53 190.6 100.6 190.59m1328.88 757.09l0 -5.3 5.3 0 5.28 -5.28 5.31 0 10.58 -10.6 5.3 0m-725.32 -704.14l-5.31 0 -10.58 10.58 0 5.3 -5.3 5.28 0 15.88m-582.37 -100.57c-16.96,14.63 -8.93,11.1 -10.61,37.04m1662.45 1800.1l5.28 0 5.3 5.3 5.31 0 5.27 -5.3 15.89 0m-37.05 751.81l31.77 0 5.28 -5.3m-137.65 58.23l0 15.88 5.31 0m-1339.49 -783.55l0 10.58 5.3 0m-63.53 -164.13l0 5.3m1493.01 -1678.31l5.28 0 5.3 5.28 5.31 0 5.27 -5.28 15.89 0m-37.05 751.78l31.77 0 5.28 -5.27m-121.76 -905.34l-5.31 0 0 5.27 -5.27 5.31 0 5.3 -5.31 5.28 0 15.88m-1307.72 -799.44l-5.28 0 -5.3 5.28 -5.3 0 -5.28 5.31 0 5.3 -5.3 5.28 0 10.6m-58.23 21.16l0 10.61m3510.17 1980.09c198.46,-131.92 -120.88,-266.39 -280.61,-180.02 -82.5,40.6 -102.26,100.7 -37.05,169.44 95.9,51.42 220.14,66.16 317.66,10.58zm-3510.17 -1969.51l-15.89 21.18 -5.3 21.16 0 21.19 5.3 21.19 15.89 21.16m709.44 3256.04c23.28,268.17 553.96,299.33 725.32,169.44m-1858.33 -2970.15l5.3 137.65 21.19 132.36 37.04 132.35 52.95 127.06m-116.48 -529.42l0 -391.8m3870.21 2472.49l238.25 -137.67m-333.55 164.14l52.93 -10.58 42.37 -15.89m238.25 -137.67l58.23 -42.34 42.35 -47.65 31.76 -52.95 10.61 -58.23m-2160.11 169.41l402.36 90.02 418.26 63.53 428.85 37.05 434.14 5.3m-1683.61 -195.9l-52.95 0m582.37 116.48l0 412.96 -5.28 47.65 -31.76 31.77 -667.1 370.62m-1614.8 -2678.98l217.09 -127.07m984.75 2266.02l243.53 -137.67m1715.38 -1069.45l111.18 -47.65 121.79 -21.19 132.34 -5.3 132.37 15.88c121.16,37.95 294.1,112.34 291.2,264.74m-1005.94 -79.42l217.06 -127.06m-450.01 127.06l52.93 21.16 63.53 5.31 63.53 -5.31 52.96 -21.16m-465.92 -132.36l232.97 132.36m-291.2 -227.66l21.19 52.95 37.04 42.35m-142.95 -428.85l47.65 169.41 37.07 164.14m-84.72 -333.55l-15.88 -63.53 0 -757.09m-90 -158.83l37.07 26.46 26.47 42.35 21.18 42.37 5.28 47.65m-90 -158.83l-1334.18 -773m-84.72 -5.28l42.37 -5.3 42.35 10.58m-905.34 354.73l74.11 -37.07 84.72 -21.16 95.3 -15.88 95.3 0m-587.68 211.76l238.25 -137.65m-291.2 206.48l21.19 -42.34 31.76 -26.49m-52.95 158.83l0 -90m4251.41 2223.65l0 -391.78m-3986.67 -1111.82l37.04 -26.49m1201.84 2138.95c-553.71,249.45 -991.66,-178.87 -1212.42,-661.82 -151.85,-323.74 -336.72,-1147.46 -26.46,-1450.64m1651.84 2652.49l-47.65 10.58 -47.64 -5.31 -735.93 -349.43 -180.02 -84.69c-140.47,-139.95 -507.91,-290.57 -481.77,-524.14m0 -2520.15l5.28 -42.34 21.18 -26.47m-26.46 794.16l0 -725.35m26.46 -68.81l661.79 -397.08m21.19 3647.83l0 201.17m2980.73 -868.27l-232.95 132.37m-1853.02 -169.44l-5.31 37.07 15.89 -21.18m47.65 -15.89l-58.23 0m587.67 127.07l0 434.15m-31.76 63.53c18.71,-15.71 36.27,-37.14 31.76,-63.53m-444.73 333.54l0 -42.34m444.73 -291.2l-661.81 365.31 -10.58 42.35 -26.47 26.49m275.3 -952.99l-238.25 137.64 0 746.51m185.32 -900.04l-169.44 95.3 -15.88 58.23m-68.81 31.77l-68.84 58.23 -68.83 47.65m137.67 -105.88l31.76 -31.77 52.93 -58.23m95.3 -111.18l-42.35 26.46m52.96 -201.18l-47.65 164.11m47.65 -418.24l5.27 127.07 -5.27 127.06m0 -254.13l-5.31 0 10.58 -63.53 630.05 -360.03m-84.72 -333.55l-656.51 375.92 -52.93 -58.26 -31.76 -52.92m-1365.95 -900.07c134.37,-67.31 205.58,-29.99 344.12,10.61 368.84,132.87 824.25,556.44 1021.83,889.46m-1016.52 -682.98l190.59 127.07 190.6 169.41 185.3 190.6 158.83 217.06m-90 1344.79c483.2,-296.5 371.84,-944.61 90,-1344.79m-1291.84 -794.16c183.72,-104.73 400.53,3.18 566.52,90.02m1201.81 1175.35l37.07 26.47 42.35 15.88m-68.84 -105.88l26.49 42.35 52.93 21.18m1932.47 21.17l-232.97 137.67m21.18 37.04l232.95 -132.34m-852.39 -270.02l217.06 -121.78m-481.77 121.78l-232.97 -132.36 -37.05 -37.07 -15.88 -47.65m-84.72 -333.55l-10.58 -63.53 0 -757.09 -5.3 -21.19 -5.3 -26.46 -5.28 -21.19 -15.88 -26.46 -31.77 -42.35 -15.88 -15.88 -21.19 -15.88 -1334.18 -767.7 -15.89 -10.58 -15.88 -5.3 -26.46 0 -10.61 5.3m-1042.98 497.66l238.24 -137.65m3806.66 2228.95l0 391.77m-232.95 -259.43l0 391.8m-105.88 -365.31l0 391.77m-2927.8 -1752.45l185.3 127.07 190.59 158.83 180.02 190.6 158.83 211.78m-1307.72 -751.81c167.39,-147.45 427.8,-22.83 592.98,63.53m-592.98 -63.53c-216.99,171.37 -166.69,733.73 -105.88,963.6 83.47,412.68 287.92,844.53 656.51,1074.75 870.58,412.96 1288.04,-562.79 757.09,-1286.54m354.73 1800.1l0 -751.81"/>
  <path class="fil0 str0" d="M10039.62 7843.83l-10.6 31.77 -21.16 21.16 -31.77 10.61 -37.07 -10.61m-1334.18 -767.67c356.13,356.83 855.56,619.97 1334.18,767.67m-1334.18 -767.67c-19.16,-14.93 -29.74,-50.58 -42.35,-63.53l0 -10.61 -5.3 -10.58 0 -10.58 -5.3 -10.6c2.57,-40.32 -8.91,-12.54 -5.28,-63.54m1493.01 -1657.12l0 751.78m37.05 -5.27l0 -746.51m-121.76 -158.83l42.34 26.46 42.37 37.07 26.47 47.65 10.58 47.65m-137.65 -121.79l37.07 21.19 31.77 26.46 21.16 37.07 10.6 37.07m37.05 746.51l15.88 63.53m-52.93 -58.26l0 -5.27m-1434.78 -1635.97c356.13,356.93 855.56,619.97 1334.18,767.67m-1307.72 -799.44c403.53,380.22 803.51,582.03 1323.61,762.4m-1381.84 -778.28l26.46 -5.3 31.77 21.18m-84.69 63.54l5.28 -31.77 10.6 -15.88 21.16 0 21.19 15.88m-58.23 741.21l0 -709.44m84.69 -63.54l672.4 -402.38m1334.18 767.7l-682.97 397.08m121.76 158.83l661.81 -386.5m-661.81 1133.01l661.81 -375.92m-455.33 820.64l603.56 -338.84m-905.34 1763.03l0 68.83 312.38 -180.02m-195.9 17445.01c46.5,-11.31 136.95,-49.68 174.72,-79.42m-1424.18 -360.03c-9.11,134.74 135.97,288.3 248.83,344.15m-52.96 -1953.63c-549.38,428.5 164.49,825.4 630.05,804.74 472.42,40.32 1247.62,-355.43 682.98,-804.74m-1313.03 312.36c33.09,506.76 1280.64,503.86 1313.03,0m-1233.61 -2874.85c-56.83,110.03 -22.06,218.04 68.83,296.48m-74.11 -375.89c-16.23,60.45 36.52,168.98 90,206.48m174.71 100.6c244.95,109.16 905.24,59.73 900.04,-307.08m-915.92 476.49c256.33,140.82 1079.6,35.92 910.64,-397.08m-47.65 577.1c64.49,-48.9 118.94,-147.45 105.88,-232.97m-89.99 407.68c98.12,-88.34 147.17,-197.22 84.69,-322.96m-1260.05 0c-173.49,472.27 721.1,569.42 1000.64,423.54m-1005.94 -508.26c-17.49,395.33 708.29,468.29 990.06,333.55m-704.16 -1154.17c-510.57,267.11 -13.41,606.83 349.43,582.37 361.08,24.09 860.06,-316.24 349.42,-582.37m21.19 1328.88c78.09,-37.39 104.38,-50.83 174.72,-100.58m26.46 3780.19l5.3 0m275.29 -1657.15l0 227.67m0 84.69l0 37.07m0 90l0 37.07m0 89.99l0 37.07m0 90l0 37.07m0 90l0 37.06m0 84.72l0 42.35m0 84.72l0 42.34m0 84.72l0 42.35m-1704.77 -1238.89l0 164.14m0 84.69l0 37.07m0 90l0 37.07m0 89.99l0 37.07m0 90l0 37.07m0 89.99l0 37.07m0 90l0 37.07m0 84.72l0 42.34m0 84.72l0 42.35m0 84.72l0 37.04m1413.6 -4415.52l21.16 164.14m21.18 158.83l31.77 264.71m-1201.82 -587.68l-15.88 164.14m-21.18 158.83l-31.77 264.71m1291.84 190.6l0 2340.12m-1313.03 -2340.12l0 2340.12m-190.59 1217.7c-49.68,377.07 563.06,523.9 841.8,502.99 308.06,4.67 897.84,-173.04 852.41,-566.52m-1694.21 -63.53c-29.12,706.36 1752.52,648.58 1694.21,-63.53m-1694.21 -63.54c-31.15,706.02 1753.15,651.21 1694.21,-63.53m-1694.21 -63.53c-47.03,690.75 1742.64,667.99 1694.21,-63.53m-1694.21 -63.54c-51.01,689.61 1742.91,672.3 1694.21,-63.53m-1694.21 -63.53c-52.76,688.9 1737.54,671.77 1694.21,-58.23m-1694.21 -63.53c-51.26,375.36 566.59,520.69 841.8,502.95 307.89,-0.07 894.31,-168.71 852.41,-566.49m-1694.21 -63.53c-52.41,375.89 566.24,522.82 841.8,502.96 306.38,5.58 899.16,-175.07 852.41,-566.49m-1694.21 -63.54c-30.17,164.66 110.65,303.01 243.55,375.9m1000.63 1154.19c-218.56,64.86 -522.19,66.78 -735.92,-10.61m1159.47 -354.7c-46.93,195.8 -247.33,304.5 -423.55,365.31m-1249.46 -1572.43c4.05,154.58 122.81,259.51 248.83,328.24m-248.83 -206.48c57.78,635.85 1652.45,611.41 1704.77,-58.23m-1704.77 185.3c60.95,639.82 1661.9,607.08 1704.77,-63.54m-1704.77 190.6c62.8,642.56 1661.98,603.04 1704.77,-63.53m-1704.77 190.6c70.83,649.7 1669.48,592.8 1704.77,-63.54m-1704.77 190.6c64.31,640.53 1662.7,601.19 1704.77,-63.53m-1704.77 190.6c65.63,637.97 1658.97,602.23 1704.77,-63.54m-1704.77 190.6c66.43,634.28 1655.9,604.01 1704.77,-63.53m-1704.77 190.6c68.73,632.85 1652.62,603.91 1704.77,-63.54m-1455.94 518.85c376.61,232.79 1395.24,167.48 1455.94,-391.78m-1455.94 -746.51l0 90m0 1048.29l0 10.6 26.46 15.88 15.88 -5.3m68.84 -4399.63l-5.31 84.72 -10.58 84.69m391.78 -21.16l-217.06 121.76 10.58 -84.72 5.3 -84.69m863 524.14l-10.61 -90.02 -5.28 -84.69m-158.83 275.29l-211.78 -121.76m195.9 -52.95l5.27 84.71 10.61 90m-720.04 -1074.75c0.7,150.98 247.25,210.81 365.31,201.18 77.74,4.15 182.12,-28.77 248.83,-68.81l21.18 -15.89 15.89 -15.88 31.76 -42.37 5.3 -15.88 10.58 -42.35 0 -6162.67m-698.85 0l0 6162.67m0 -12447.09l0 6125.59m698.85 -6146.78l0 6146.78c-347.92,-492.73 -184.24,275.32 -698.85,0m698.85 158.83c-347.75,-498.83 -182.29,266.67 -698.85,0"/>
 </g>
</svg>
