<?xml version="1.0" encoding="utf-8"?>
<!-- Generator: Adobe Illustrator 21.0.2, SVG Export Plug-In . SVG Version: 6.00 Build 0)  -->
<svg version="1.2" baseProfile="tiny" id="Capa_1" xmlns="http://www.w3.org/2000/svg" xmlns:xlink="http://www.w3.org/1999/xlink"
	 x="0px" y="0px" viewBox="0 0 173.1 100.1" xml:space="preserve">
<g>
	<g>
		<g>
			<g>
				<g>
					<path fill-rule="evenodd" fill="#FFFFFF" d="M102.3,13.9c39.9,3.7,69.9,21.2,69.9,42.3c0,23.8-38.4,43.1-85.7,43.1
						C39.2,99.3,0.9,80,0.9,56.2c0-21.1,30.2-38.6,69.9-42.3c1.4-7.4,8-13,15.8-13C99.9,0.9,102.3,13.9,102.3,13.9z"/>
					
						<path fill-rule="evenodd" fill="none" stroke="#D8001D" stroke-width="1.7016" stroke-linecap="round" stroke-miterlimit="3.8637" d="
						M102.3,13.9c39.9,3.7,69.9,21.2,69.9,42.3c0,23.8-38.4,43.1-85.7,43.1C39.2,99.3,0.9,80,0.9,56.2c0-21.1,30.2-38.6,69.9-42.3
						c1.4-7.4,8-13,15.8-13C99.9,0.9,102.3,13.9,102.3,13.9z"/>
				</g>
				<g>
					<path fill-rule="evenodd" fill="#D8001D" d="M102.7,17.8C140,21.4,168,37.2,168,56.2c0,21.7-36.5,39.3-81.5,39.3
						c-45,0-81.5-17.6-81.5-39.3c0-19,28-34.8,65.1-38.5C70.7,26.2,78,33,86.5,33c8.6,0,15.6-6.7,16-15.2L102.7,17.8z"/>
					<path fill-rule="evenodd" fill="none" stroke="#D8001D" stroke-width="1.7016" stroke-miterlimit="3.8637" d="M102.7,17.8
						C140,21.4,168,37.2,168,56.2c0,21.7-36.5,39.3-81.5,39.3c-45,0-81.5-17.6-81.5-39.3c0-19,28-34.8,65.1-38.5
						C70.7,26.2,78,33,86.5,33c8.6,0,15.6-6.7,16-15.2L102.7,17.8z"/>
				</g>
				<g>
					<path fill="#FFFFFF" d="M104.4,38.3v6.5h2.6v4h-2.7l0,17.5l-9.9,0c-0.1-0.1-0.2-0.2-0.1-0.4c0.8-0.2,1.7-0.4,2-1.3V48.7
						l-2.6-0.1v-4l2.5,0c0,0,0.1-1.2,0-2.6c0-1.3,0-2.7-0.9-3.2c-0.4,0-0.8,0-0.9-0.4l0-0.4L104.4,38.3z"/>
					<path fill="none" stroke="#FFFFFF" stroke-width="0.4439" stroke-miterlimit="3.8637" d="M104.4,38.3v6.5h2.6v4h-2.7l0,17.5
						l-9.9,0c-0.1-0.1-0.2-0.2-0.1-0.4c0.8-0.2,1.7-0.4,2-1.3V48.7l-2.6-0.1v-4l2.5,0c0,0,0.1-1.2,0-2.6c0-1.3,0-2.7-0.9-3.2
						c-0.4,0-0.8,0-0.9-0.4l0-0.4L104.4,38.3z"/>
				</g>
				<g>
					<g>
						<ellipse fill="#FFFFFF" cx="37.7" cy="42.5" rx="4.3" ry="3.5"/>
					</g>
					<g>
						
							<ellipse fill="none" stroke="#FFFFFF" stroke-width="0.111" stroke-miterlimit="3.8637" cx="37.7" cy="42.5" rx="4.3" ry="3.5"/>
					</g>
				</g>
				<g>
					<g>
						<ellipse fill="#FFFFFF" cx="50.6" cy="43.1" rx="3.6" ry="2.8"/>
					</g>
					<g>
						
							<ellipse fill="none" stroke="#FFFFFF" stroke-width="0.111" stroke-miterlimit="3.8637" cx="50.6" cy="43.1" rx="3.6" ry="2.8"/>
					</g>
				</g>
				<g>
					<g>
						<circle fill="#D8001D" cx="86.5" cy="17" r="13"/>
					</g>
					<g>
						<circle fill="none" stroke="#D8001D" stroke-width="0.4894" stroke-miterlimit="3.8637" cx="86.5" cy="17" r="13"/>
					</g>
				</g>
				<g>
					<path fill="#FFFFFF" d="M85.9,27.9c-2.4-1-4.4-2.7-6.6-4.1v-4c1.5,0.6,3.7,0.6,5.3-0.1c0.3,1.5-0.2,3.4,0.5,4.7
						c0.4,0.2,0.6-0.4,0.6-0.7v-11c1.3,0.7,3.2,1.2,4.7,0.4l1.4-0.7l0,11.7L85.9,27.9z"/>
					<path fill="none" stroke="#FFFFFF" stroke-width="0.4883" stroke-miterlimit="3.8637" d="M85.9,27.9c-2.4-1-4.4-2.7-6.6-4.1v-4
						c1.5,0.6,3.7,0.6,5.3-0.1c0.3,1.5-0.2,3.4,0.5,4.7c0.4,0.2,0.6-0.4,0.6-0.7v-11c1.3,0.7,3.2,1.2,4.7,0.4l1.4-0.7l0,11.7
						L85.9,27.9z"/>
				</g>
				<g>
					<g>
						<circle fill="#FFFFFF" cx="88.6" cy="9.4" r="3.3"/>
					</g>
					<g>
						<circle fill="none" stroke="#FFFFFF" stroke-width="0.1221" stroke-miterlimit="3.8637" cx="88.6" cy="9.4" r="3.3"/>
					</g>
				</g>
				<g>
					<g>
						<g>
							<circle fill="#D8001D" cx="145.7" cy="40.5" r="2.9"/>
						</g>
						<g>
							<circle fill="none" stroke="#FFFFFF" stroke-width="0.4439" stroke-miterlimit="3.8637" cx="145.7" cy="40.5" r="2.9"/>
						</g>
					</g>
					<g>
						<path fill-rule="evenodd" fill="#FFFFFF" d="M144.5,42h0.7v-1.2h0.7c0.5,0,0.5,0.2,0.5,0.6c0,0.3,0,0.5,0.1,0.6h0.7v-0.1
							c-0.1-0.1-0.1-0.2-0.1-0.6c0-0.6-0.1-0.7-0.4-0.8c0.3-0.1,0.5-0.4,0.5-0.8c0-0.3-0.2-0.9-1-0.9h-1.6V42z M145.1,40.2v-0.8h0.8
							c0.4,0,0.5,0.2,0.5,0.4c0,0.3-0.2,0.4-0.5,0.4H145.1z"/>
					</g>
				</g>
				<g>
					<path fill-rule="evenodd" fill="#FFFFFF" d="M44.6,47.4c-0.2,1.2,1.8,0.3,1.9,1.8v15.3c-0.1,1.5-2.1,0.6-1.9,1.7l9.9,0
						c0,0,0.2-18.8,0.1-18.8C52.3,47.4,44.6,47.4,44.6,47.4z"/>
					<path fill-rule="evenodd" fill="none" stroke="#FFFFFF" stroke-width="0.4439" stroke-miterlimit="3.8637" d="M44.6,47.4
						c-0.2,1.2,1.8,0.3,1.9,1.8v15.3c-0.1,1.5-2.1,0.6-1.9,1.7l9.9,0c0,0,0.2-18.8,0.1-18.8C52.3,47.4,44.6,47.4,44.6,47.4z"/>
				</g>
				<g>
					<path fill-rule="evenodd" fill="#FFFFFF" d="M31.8,47.3c-0.2,1.2,1.9,0.3,2,1.8l0,20.2L32.6,71c-1,1-2.5,1.3-3.8,1
						c-1.1-0.2-2.1-1.2-2.7-2.1c-1-2.3,2.4-1.4,2.9-3.3c0.5-0.8,0.4-2.1,0.1-2.9c-0.6-1.4-2.1-2.1-3.5-2.1c-1.1,0.2-2.1,0.7-2.8,1.6
						c-1.3,2.2-0.7,5.3,0.2,7.5c2,4,6.2,6.2,10.7,5.8c3.9-0.4,7.5-4,8.5-7.7c0,0,0.1-20.9,0-21.3L31.8,47.3z"/>
					<path fill-rule="evenodd" fill="none" stroke="#FFFFFF" stroke-width="0.4439" stroke-miterlimit="3.8637" d="M31.8,47.3
						c-0.2,1.2,1.9,0.3,2,1.8l0,20.2L32.6,71c-1,1-2.5,1.3-3.8,1c-1.1-0.2-2.1-1.2-2.7-2.1c-1-2.3,2.4-1.4,2.9-3.3
						c0.5-0.8,0.4-2.1,0.1-2.9c-0.6-1.4-2.1-2.1-3.5-2.1c-1.1,0.2-2.1,0.7-2.8,1.6c-1.3,2.2-0.7,5.3,0.2,7.5c2,4,6.2,6.2,10.7,5.8
						c3.9-0.4,7.5-4,8.5-7.7c0,0,0.1-20.9,0-21.3L31.8,47.3z"/>
				</g>
				<g>
					<path fill-rule="evenodd" fill="#FFFFFF" d="M57.4,47.6c-0.2,1.2,1.8,0.3,1.9,1.7v15.1c-0.1,1.5-2.1,0.6-1.9,1.7l9.8,0
						l-0.1-11.9c0-1.3,1-2.3,2.3-2.3c1.3,0,2.3,1,2.3,2.3l0-0.1l0,10c-0.1,1.5-2.1,0.6-2,1.7l3.3,0h6.4l0-12.1l0,0l0,0.4
						c0-1.3,1-2.3,2.3-2.3c1.3,0,2.3,1,2.3,2.2v10.1c-0.1,1.5-2.1,0.5-2,1.7c0,0,8.4,0,9.6,0c0.1-4.8-0.1-14.2-0.1-14.2
						c-0.5-1.8-2.2-3.4-4-4.1c-3.2-1-6.2,0.3-8.6,2.2c-1-1.3-2.5-2.1-4.1-2.7c-2.9-0.5-5.4,0.9-7.6,2.5l-0.1-2.1L57.4,47.6z"/>
					<path fill-rule="evenodd" fill="none" stroke="#FFFFFF" stroke-width="0.4439" stroke-miterlimit="3.8637" d="M57.4,47.6
						c-0.2,1.2,1.8,0.3,1.9,1.7v15.1c-0.1,1.5-2.1,0.6-1.9,1.7l9.8,0l-0.1-11.9c0-1.3,1-2.3,2.3-2.3c1.3,0,2.3,1,2.3,2.3l0-0.1l0,10
						c-0.1,1.5-2.1,0.6-2,1.7l3.3,0h6.4l0-12.1l0,0l0,0.4c0-1.3,1-2.3,2.3-2.3c1.3,0,2.3,1,2.3,2.2v10.1c-0.1,1.5-2.1,0.5-2,1.7
						c0,0,8.4,0,9.6,0c0.1-4.8-0.1-14.2-0.1-14.2c-0.5-1.8-2.2-3.4-4-4.1c-3.2-1-6.2,0.3-8.6,2.2c-1-1.3-2.5-2.1-4.1-2.7
						c-2.9-0.5-5.4,0.9-7.6,2.5l-0.1-2.1L57.4,47.6z"/>
				</g>
				<g>
					<path fill-rule="evenodd" fill="#FFFFFF" d="M137,47.6c0.7,0.1,0.3,1.4,0.3,1.4c3.3-2.3,9-2.5,11.4,1.4c0,0,0.6,0.7,0.7,3V66
						h-9.4c-0.2-1.2,1.9-0.3,2-1.8l0-10.7l0,0.1c0-1.3-1-2.3-2.3-2.3c-1.3,0-2.3,1-2.3,2.3V66l-10.1,0c-0.2-1.2,1.9-0.4,2-1.9
						l0-14.9c-0.1-1.5-2.1-0.6-1.9-1.7L137,47.6z"/>
					<path fill-rule="evenodd" fill="none" stroke="#FFFFFF" stroke-width="0.4439" stroke-miterlimit="3.8637" d="M137,47.6
						c0.7,0.1,0.3,1.4,0.3,1.4c3.3-2.3,9-2.5,11.4,1.4c0,0,0.6,0.7,0.7,3V66h-9.4c-0.2-1.2,1.9-0.3,2-1.8l0-10.7l0,0.1
						c0-1.3-1-2.3-2.3-2.3c-1.3,0-2.3,1-2.3,2.3V66l-10.1,0c-0.2-1.2,1.9-0.4,2-1.9l0-14.9c-0.1-1.5-2.1-0.6-1.9-1.7L137,47.6z"/>
				</g>
				<g>
					<path fill-rule="evenodd" fill="#FFFFFF" d="M124.7,50c2,2.2,2.8,5.2,2.3,8.5h-12.4c-0.3,0.2-0.1,3.1,1.3,4.2
						c1,0.6,2.9,0.6,4.2,0.1c1.2-0.3,1.7-1.1,2.1-2.3h4.2c-0.6,2.9-3.9,5.5-6.9,6.2c-4.2,0.8-8.3-0.8-10.8-4.4
						c-1.5-2.5-2.1-5.9-1.1-8.8c1.1-3.3,4.6-6.2,8.1-6.7C119.3,46.6,122.3,47.7,124.7,50z M119.7,51.1c0.8,1.1,1,2.9,0.9,4.3h-6.4
						c0-1.9-0.1-4.6,2.1-5.2C118,49.8,118.7,50,119.7,51.1z"/>
					<path fill-rule="evenodd" fill="none" stroke="#FFFFFF" stroke-width="0.4439" stroke-miterlimit="3.8637" d="M124.7,50
						c2,2.2,2.8,5.2,2.3,8.5h-12.4c-0.3,0.2-0.1,3.1,1.3,4.2c1,0.6,2.9,0.6,4.2,0.1c1.2-0.3,1.7-1.1,2.1-2.3h4.2
						c-0.6,2.9-3.9,5.5-6.9,6.2c-4.2,0.8-8.3-0.8-10.8-4.4c-1.5-2.5-2.1-5.9-1.1-8.8c1.1-3.3,4.6-6.2,8.1-6.7
						C119.3,46.6,122.3,47.7,124.7,50z M119.7,51.1c0.8,1.1,1,2.9,0.9,4.3h-6.4c0-1.9-0.1-4.6,2.1-5.2C118,49.8,118.7,50,119.7,51.1
						z"/>
				</g>
			</g>
		</g>
	</g>
</g>
</svg>
