<svg xmlns="http://www.w3.org/2000/svg" viewBox="0 0 800 480" width="800" height="480">
<defs>
  <style>
    .title { font: bold 16px sans-serif; fill: #1a1a2e; }
    .label { font: 12px sans-serif; fill: #333; }
    .val { font: 11px monospace; fill: #555; }
    .box { fill: #e0f7fa; stroke: #20a0a0; stroke-width: 2; rx: 6; }
    .box2 { fill: #fff3e0; stroke: #e65100; stroke-width: 2; rx: 6; }
    .box3 { fill: #e8f5e9; stroke: #2e7d32; stroke-width: 2; rx: 6; }
  </style>
  <marker id="ah" markerWidth="8" markerHeight="6" refX="8" refY="3" orient="auto">
    <polygon points="0 0, 8 3, 0 6" fill="#20a0a0" />
  </marker>
</defs>

    <text x="400" y="30" class="title" text-anchor="middle">水力发电储能原理 — 水流驱动涡轮→发电→储能</text>
    <line x1="80" y1="200" x2="720" y2="200" stroke="#1976d2" stroke-width="8"/>
    <text x="400" y="190" class="val" text-anchor="middle" fill="#1976d2">水流方向</text>
    <circle cx="300" cy="200" r="50" fill="none" stroke="#e65100" stroke-width="3"/>
    <path d="M 300,150 L 300,250 M 265,175 L 335,225 M 265,225 L 335,175" stroke="#e65100" stroke-width="2"/>
    <text x="300" y="130" class="label" text-anchor="middle" fill="#e65100">涡轮发电机</text>
    <rect x="450" y="120" width="100" height="50" class="box"/><text x="500" y="150" class="label" text-anchor="middle">整流电路</text>
    <line x1="350" y1="200" x2="450" y2="145" stroke="#e65100" stroke-width="2"/>
    <rect x="450" y="210" width="100" height="50" class="box2"/><text x="500" y="240" class="label" text-anchor="middle">锂电池储能</text>
    <line x1="500" y1="170" x2="500" y2="210" stroke="#20a0a0" stroke-width="1"/>
    <rect x="450" y="300" width="100" height="50" class="box3"/><text x="500" y="330" class="label" text-anchor="middle">MCU/传感器</text>
    <line x1="500" y1="260" x2="500" y2="300" stroke="#20a0a0" stroke-width="1"/>
    <rect x="150" y="400" width="500" height="50" class="box3"/>
    <text x="400" y="425" class="label" text-anchor="middle">P=η·ρ·g·Q·H  Q=6L/min,H=2m→P≈0.5W→满足用电需求</text>
</svg>